<?xml version="1.0" standalone="no"?>
<!DOCTYPE svg PUBLIC "-//W3C//DTD SVG 20010904//EN"
 "http://www.w3.org/TR/2001/REC-SVG-20010904/DTD/svg10.dtd">
<svg version="1.0" xmlns="http://www.w3.org/2000/svg"
 width="1559.000000pt" height="1559.000000pt" viewBox="0 0 1559.000000 1559.000000"
 preserveAspectRatio="xMidYMid meet">
<metadata>
Created by potrace 1.14, written by Peter Selinger 2001-2017
</metadata>
<g transform="translate(0.000000,1559.000000) scale(0.100000,-0.100000)"
fill="#000000" stroke="none">
<path d="M8230 14131 c0 -11 26 -22 34 -14 3 3 3 10 0 14 -7 12 -34 11 -34 0z"/>
<path d="M8080 14035 c0 -8 4 -15 9 -15 5 0 11 7 15 15 3 9 0 15 -9 15 -8 0
-15 -7 -15 -15z"/>
<path d="M8698 13999 c-24 -14 -23 -35 2 -42 22 -6 41 18 33 41 -6 14 -12 15
-35 1z"/>
<path d="M8370 13986 c0 -8 5 -18 10 -21 13 -8 42 14 34 26 -9 15 -44 10 -44
-5z"/>
<path d="M6984 13979 c-3 -6 1 -18 10 -27 15 -15 17 -15 34 1 15 16 15 19 2
27 -20 13 -37 12 -46 -1z"/>
<path d="M8213 13878 c-21 -28 -23 -37 -7 -52 11 -12 20 -13 33 -6 27 14 33
48 11 60 -24 13 -26 13 -37 -2z"/>
<path d="M9884 13879 c-8 -14 11 -33 25 -25 11 7 4 36 -9 36 -5 0 -12 -5 -16
-11z"/>
<path d="M7496 13864 c-6 -16 17 -29 34 -19 16 10 12 22 -9 28 -12 3 -22 -1
-25 -9z"/>
<path d="M7840 13856 c0 -23 26 -37 54 -30 29 7 35 29 10 38 -28 11 -64 6 -64
-8z"/>
<path d="M8484 13805 c-9 -21 15 -47 40 -43 24 4 34 37 14 49 -21 14 -48 10
-54 -6z"/>
<path d="M6834 13778 c-4 -15 -1 -25 11 -34 24 -18 57 -1 48 24 -14 36 -48 43
-59 10z"/>
<path d="M9334 13779 c-11 -18 11 -32 25 -16 9 12 8 16 -3 20 -9 4 -18 1 -22
-4z"/>
<path d="M7105 13751 c-3 -11 -3 -25 0 -31 9 -14 51 -12 63 3 15 17 3 34 -30
42 -21 5 -27 3 -33 -14z"/>
<path d="M6607 13745 c-4 -8 -2 -17 4 -21 12 -7 41 15 33 27 -8 14 -31 11 -37
-6z"/>
<path d="M9480 13747 c0 -18 21 -37 41 -37 24 0 33 18 19 35 -15 19 -60 20
-60 2z"/>
<path d="M6433 13739 c-15 -15 -4 -49 17 -49 28 0 45 27 30 45 -15 18 -32 19
-47 4z"/>
<path d="M8936 13714 c-8 -21 11 -44 36 -44 24 0 34 26 18 45 -16 20 -46 19
-54 -1z"/>
<path d="M9654 13715 c-8 -19 3 -35 25 -35 25 0 32 10 20 31 -12 23 -37 25
-45 4z"/>
<path d="M7413 13688 c-26 -34 -19 -68 14 -68 18 0 45 44 37 64 -7 19 -37 21
-51 4z"/>
<path d="M8346 13674 c-11 -29 -6 -53 13 -64 27 -14 37 -13 55 6 14 14 14 18
1 45 -17 32 -58 40 -69 13z"/>
<path d="M9127 13678 c-5 -16 13 -58 25 -58 24 0 47 21 41 38 -12 31 -57 45
-66 20z"/>
<path d="M9340 13671 c-14 -27 23 -55 52 -40 23 12 23 22 0 42 -24 22 -39 21
-52 -2z"/>
<path d="M7557 13673 c-13 -12 -7 -42 10 -51 19 -11 63 5 63 23 0 27 -54 48
-73 28z"/>
<path d="M9890 13671 c0 -6 5 -13 10 -16 6 -3 10 1 10 9 0 9 -4 16 -10 16 -5
0 -10 -4 -10 -9z"/>
<path d="M6112 13648 c-20 -20 -15 -58 8 -58 25 0 41 30 29 53 -12 20 -21 21
-37 5z"/>
<path d="M8230 13640 c0 -14 7 -20 21 -20 15 0 19 4 15 16 -3 9 -6 18 -6 20 0
2 -7 4 -15 4 -8 0 -15 -9 -15 -20z"/>
<path d="M6964 13623 c-13 -51 34 -80 62 -38 12 18 11 24 -2 43 -21 31 -52 28
-60 -5z"/>
<path d="M7172 13630 c-18 -30 1 -60 38 -60 58 0 58 61 0 75 -19 4 -28 0 -38
-15z"/>
<path d="M7990 13630 c0 -19 20 -27 33 -13 8 7 -11 33 -24 33 -5 0 -9 -9 -9
-20z"/>
<path d="M6807 13627 c-25 -19 -26 -61 -2 -71 20 -7 45 20 45 49 0 27 -22 38
-43 22z"/>
<path d="M7765 13621 c-10 -33 5 -52 38 -49 38 4 56 30 38 52 -19 23 -68 21
-76 -3z"/>
<path d="M8778 13608 c-14 -24 -13 -67 3 -69 5 -1 15 -2 22 -3 40 -6 63 65 28
84 -28 15 -37 13 -53 -12z"/>
<path d="M9595 13616 c-22 -16 -14 -46 12 -42 20 3 30 33 16 47 -5 5 -17 4
-28 -5z"/>
<path d="M5651 13601 c-17 -11 -7 -41 12 -41 8 0 20 7 28 16 10 13 10 17 -2
25 -17 11 -21 11 -38 0z"/>
<path d="M6251 13581 c-8 -5 -11 -16 -6 -30 8 -27 50 -28 64 -3 17 32 -23 55
-58 33z"/>
<path d="M8540 13565 c-7 -8 -10 -25 -6 -40 5 -20 13 -25 36 -25 38 0 55 28
34 58 -18 25 -46 28 -64 7z"/>
<path d="M8960 13564 c-28 -33 -14 -74 25 -74 33 0 50 25 37 54 -12 28 -47 39
-62 20z"/>
<path d="M6586 13555 c-8 -23 3 -65 18 -65 49 0 63 73 15 78 -17 2 -29 -3 -33
-13z"/>
<path d="M9768 13549 c-10 -5 -23 -19 -28 -30 -9 -16 -7 -21 12 -28 40 -15 82
25 57 55 -13 16 -18 17 -41 3z"/>
<path d="M10124 13549 c-7 -12 1 -22 21 -25 8 -1 15 4 15 11 0 17 -27 27 -36
14z"/>
<path d="M10286 13511 c-3 -4 1 -17 9 -27 16 -23 40 -7 29 19 -7 18 -29 23
-38 8z"/>
<path d="M9130 13481 c-20 -38 16 -76 58 -60 27 10 28 29 2 57 -26 27 -46 28
-60 3z"/>
<path d="M8040 13470 c-22 -40 27 -83 70 -60 26 14 26 45 -2 64 -30 22 -55 20
-68 -4z"/>
<path d="M6393 13464 c-8 -21 9 -48 32 -53 26 -5 47 26 34 50 -12 23 -57 25
-66 3z"/>
<path d="M7070 13460 c-26 -26 -25 -55 0 -80 19 -19 22 -19 49 -5 46 23 48 74
5 94 -32 14 -31 14 -54 -9z"/>
<path d="M8242 13433 c-11 -16 -17 -35 -13 -43 6 -14 13 -16 49 -12 21 3 37
49 22 67 -18 22 -36 18 -58 -12z"/>
<path d="M7292 13434 c-30 -20 -31 -80 -2 -89 32 -10 57 3 69 36 9 25 7 33 -9
49 -24 24 -29 24 -58 4z"/>
<path d="M7496 13435 c-9 -9 -16 -30 -16 -46 0 -22 6 -30 25 -35 50 -12 83 23
62 67 -15 29 -49 36 -71 14z"/>
<path d="M7852 13438 c-18 -18 -14 -53 7 -72 17 -16 23 -16 48 -4 36 17 41 51
11 72 -27 19 -50 20 -66 4z"/>
<path d="M9964 13429 c-13 -15 -16 -24 -8 -36 14 -23 27 -26 48 -10 14 10 17
21 12 40 -8 32 -26 34 -52 6z"/>
<path d="M5537 13434 c-4 -4 -7 -20 -7 -36 0 -32 28 -39 51 -12 21 25 -21 71
-44 48z"/>
<path d="M7650 13420 c-13 -25 -5 -57 18 -69 25 -13 82 13 82 37 0 46 -79 71
-100 32z"/>
<path d="M9310 13425 c-27 -32 15 -74 60 -60 26 8 25 29 -2 55 -26 24 -41 25
-58 5z"/>
<path d="M5762 13418 c-35 -35 7 -90 47 -62 26 19 26 29 1 54 -23 23 -31 25
-48 8z"/>
<path d="M10985 13420 c-3 -5 1 -10 10 -10 9 0 13 5 10 10 -3 6 -8 10 -10 10
-2 0 -7 -4 -10 -10z"/>
<path d="M5145 13411 c-3 -5 -1 -12 5 -16 12 -7 30 2 30 16 0 12 -27 12 -35 0z"/>
<path d="M6175 13402 c-8 -8 5 -22 21 -22 8 0 14 6 14 13 0 13 -25 19 -35 9z"/>
<path d="M8452 13394 c-26 -18 -22 -48 9 -76 16 -13 25 -15 50 -6 16 5 34 19
41 31 9 18 7 24 -16 44 -32 27 -53 29 -84 7z"/>
<path d="M8626 13385 c-3 -9 -6 -30 -6 -46 0 -25 4 -29 29 -29 41 0 67 35 47
65 -17 26 -61 32 -70 10z"/>
<path d="M9542 13388 c-17 -17 -15 -53 3 -68 12 -10 20 -9 39 4 24 15 28 39
11 66 -8 14 -38 13 -53 -2z"/>
<path d="M6689 13369 c-13 -25 2 -69 24 -69 19 0 37 21 37 45 0 43 -41 60 -61
24z"/>
<path d="M6872 13368 c-17 -17 -15 -54 3 -72 26 -26 85 -2 85 35 0 40 -60 65
-88 37z"/>
<path d="M6475 13344 c-22 -22 -19 -71 4 -84 36 -19 75 18 64 61 -7 27 -49 41
-68 23z"/>
<path d="M8784 13339 c-36 -40 19 -102 69 -77 23 12 22 54 -3 75 -27 24 -46
24 -66 2z"/>
<path d="M10146 13344 c-31 -30 -8 -60 40 -55 20 2 23 39 5 55 -22 20 -26 20
-45 0z"/>
<path d="M5970 13329 c9 -16 14 -18 26 -8 21 17 17 29 -11 29 -23 0 -24 -2
-15 -21z"/>
<path d="M10680 13331 c0 -37 28 -51 59 -32 12 8 12 12 2 25 -14 17 -61 22
-61 7z"/>
<path d="M9024 13305 c-35 -35 -30 -79 9 -83 16 -2 35 2 43 9 21 18 18 72 -6
87 -18 11 -24 9 -46 -13z"/>
<path d="M9228 13300 c-35 -27 -41 -57 -16 -74 11 -8 28 -12 37 -9 49 18 68
73 32 93 -25 13 -24 13 -53 -10z"/>
<path d="M9711 13306 c-7 -8 -11 -27 -9 -43 2 -22 9 -29 31 -31 53 -6 66 27
29 71 -18 21 -36 22 -51 3z"/>
<path d="M6287 13293 c-12 -11 -7 -50 7 -62 11 -9 19 -9 35 1 22 13 25 25 15
52 -6 16 -45 22 -57 9z"/>
<path d="M5298 13283 c-19 -5 -22 -12 -12 -37 7 -19 28 -21 43 -3 14 18 -7 45
-31 40z"/>
<path d="M7463 13268 c-28 -14 -50 -65 -36 -87 16 -25 68 -26 92 -2 26 26 27
53 4 73 -28 24 -37 26 -60 16z"/>
<path d="M7606 13267 c-43 -32 -20 -116 28 -101 55 17 67 62 25 97 -25 20 -30
21 -53 4z"/>
<path d="M7802 13272 c-7 -5 -16 -22 -21 -40 -13 -43 6 -67 45 -58 58 15 71
49 32 86 -23 22 -36 24 -56 12z"/>
<path d="M7968 13269 c-21 -12 -24 -59 -6 -77 7 -7 24 -12 38 -12 49 0 68 51
32 83 -21 19 -39 21 -64 6z"/>
<path d="M9944 13252 c-36 -24 -32 -85 7 -95 21 -6 59 18 59 37 0 15 -38 66
-48 66 -4 0 -12 -4 -18 -8z"/>
<path d="M8144 13225 c-17 -25 -11 -67 12 -86 22 -18 63 -2 70 27 15 60 -51
107 -82 59z"/>
<path d="M8360 13237 c-32 -17 -44 -39 -36 -71 8 -31 26 -41 61 -32 30 8 49
40 41 72 -9 32 -36 46 -66 31z"/>
<path d="M10334 13236 c-23 -18 -14 -48 19 -59 38 -12 60 5 45 38 -13 28 -41
37 -64 21z"/>
<path d="M6129 13219 c-17 -33 3 -69 39 -69 33 0 52 16 52 43 0 44 -71 63 -91
26z"/>
<path d="M7010 13220 c-14 -27 -2 -68 26 -86 20 -13 27 -14 51 -2 36 17 42 53
12 84 -28 30 -74 32 -89 4z"/>
<path d="M7232 13224 c-27 -18 -31 -78 -6 -88 49 -19 107 14 97 56 -12 50 -48
62 -91 32z"/>
<path d="M5628 13219 c-22 -13 -23 -48 -2 -56 25 -9 65 18 62 41 -3 24 -34 31
-60 15z"/>
<path d="M9405 13222 c-31 -7 -45 -22 -45 -51 0 -30 25 -50 60 -46 37 4 36 3
47 28 18 39 -18 79 -62 69z"/>
<path d="M8524 13186 c-18 -29 -15 -65 7 -79 24 -15 87 0 94 23 6 20 -10 59
-29 72 -22 15 -56 8 -72 -16z"/>
<path d="M9556 13195 c-41 -41 -18 -103 33 -90 45 11 55 51 21 85 -24 24 -34
25 -54 5z"/>
<path d="M6848 13189 c-28 -16 -24 -75 7 -95 23 -15 27 -15 50 0 29 19 32 51
9 84 -16 24 -39 27 -66 11z"/>
<path d="M8695 13183 c-21 -20 -19 -66 3 -86 23 -21 75 -22 92 -2 17 21 4 62
-27 82 -35 23 -50 24 -68 6z"/>
<path d="M5397 13173 c-14 -13 -7 -52 11 -61 36 -19 75 24 46 52 -16 16 -46
21 -57 9z"/>
<path d="M11050 13164 c-11 -12 -10 -18 4 -32 16 -16 18 -16 31 2 11 14 12 23
4 33 -15 17 -24 16 -39 -3z"/>
<path d="M8891 13157 c-6 -8 -14 -28 -17 -44 -5 -25 -1 -34 17 -47 47 -32 99
-8 99 46 0 47 -70 79 -99 45z"/>
<path d="M10106 13151 c-20 -23 -20 -45 0 -62 30 -25 84 -12 84 19 0 46 -56
74 -84 43z"/>
<path d="M6660 13140 c-25 -25 -26 -52 -1 -74 17 -16 22 -16 55 -2 30 12 36
20 36 45 0 49 -53 68 -90 31z"/>
<path d="M5922 13129 c-30 -12 -26 -49 8 -66 26 -13 43 -5 60 27 17 32 -25 56
-68 39z"/>
<path d="M5794 13105 c-11 -28 1 -50 26 -50 20 0 25 5 25 24 0 28 -42 50 -51
26z"/>
<path d="M9121 13097 c-38 -41 -26 -107 19 -107 53 0 91 80 54 111 -26 21 -50
20 -73 -4z"/>
<path d="M10337 13102 c-27 -30 -11 -73 25 -67 26 5 41 19 44 42 6 40 -40 57
-69 25z"/>
<path d="M5221 13096 c-20 -24 -9 -51 22 -54 21 -3 29 2 39 22 13 30 12 32
-23 41 -17 4 -30 1 -38 -9z"/>
<path d="M6473 13098 c-32 -41 -17 -88 28 -88 26 0 51 21 62 52 12 35 -66 66
-90 36z"/>
<path d="M9712 13078 c-28 -28 -1 -78 42 -78 13 0 29 7 36 15 11 13 10 21 -7
43 -23 30 -52 39 -71 20z"/>
<path d="M9922 13068 c-22 -28 -18 -84 7 -98 28 -15 48 -3 61 35 8 25 8 40 0
55 -12 22 -52 27 -68 8z"/>
<path d="M10721 13066 c-18 -22 -2 -46 30 -46 33 0 38 19 13 44 -19 20 -28 20
-43 2z"/>
<path d="M6305 13046 c-60 -60 3 -137 66 -80 33 30 22 70 -28 98 -8 4 -23 -4
-38 -18z"/>
<path d="M9290 13048 c-21 -22 -26 -54 -12 -75 10 -17 53 -23 75 -11 42 21 37
90 -7 102 -31 8 -33 8 -56 -16z"/>
<path d="M5604 13016 c-16 -66 23 -103 65 -62 21 22 24 30 15 53 -7 22 -17 29
-41 31 -27 3 -33 -1 -39 -22z"/>
<path d="M11440 13020 c0 -5 9 -10 20 -10 11 0 20 5 20 10 0 6 -9 10 -20 10
-11 0 -20 -4 -20 -10z"/>
<path d="M4742 13011 c-23 -14 -10 -46 18 -46 20 0 25 5 25 25 0 26 -20 36
-43 21z"/>
<path d="M6158 13009 c-37 -21 -10 -100 33 -99 23 1 49 26 49 47 0 22 -35 63
-53 63 -7 0 -20 -5 -29 -11z"/>
<path d="M9449 12989 c-21 -22 -28 -38 -24 -56 5 -31 7 -33 37 -38 59 -11 103
70 60 108 -26 24 -40 21 -73 -14z"/>
<path d="M10463 13012 c-7 -4 -14 -19 -15 -32 -3 -26 33 -53 58 -43 20 7 17
47 -4 66 -21 19 -22 20 -39 9z"/>
<path d="M10087 12997 c-9 -7 -19 -24 -22 -39 -6 -21 -2 -30 20 -44 50 -33 99
19 62 67 -18 23 -43 29 -60 16z"/>
<path d="M10917 12962 c-34 -37 -7 -73 43 -57 34 11 20 75 -15 75 -7 0 -19 -8
-28 -18z"/>
<path d="M11201 12957 c-12 -15 -3 -31 21 -40 20 -7 30 5 22 26 -8 21 -30 28
-43 14z"/>
<path d="M5067 12953 c-14 -13 -7 -43 11 -43 27 0 43 15 36 33 -6 17 -35 23
-47 10z"/>
<path d="M5976 12944 c-19 -18 -21 -65 -4 -82 7 -7 22 -12 34 -12 49 0 72 61
36 93 -23 21 -46 22 -66 1z"/>
<path d="M5367 12943 c-24 -23 9 -79 40 -69 27 9 36 32 23 57 -10 18 -50 26
-63 12z"/>
<path d="M9669 12927 c-49 -25 -28 -107 27 -107 22 0 54 23 54 40 0 22 -21 60
-38 69 -13 7 -26 6 -43 -2z"/>
<path d="M11402 12908 c-14 -14 2 -48 24 -48 20 0 29 27 14 45 -15 18 -22 19
-38 3z"/>
<path d="M4512 12898 c-6 -8 -6 -22 -1 -36 7 -19 12 -21 28 -13 24 13 32 36
18 50 -15 15 -32 14 -45 -1z"/>
<path d="M5823 12902 c-6 -4 -17 -20 -22 -35 -9 -24 -8 -31 14 -53 21 -21 28
-23 47 -13 13 7 26 17 30 23 12 17 9 61 -4 74 -13 13 -47 16 -65 4z"/>
<path d="M5273 12882 c-28 -4 -52 -37 -46 -61 3 -10 15 -23 28 -29 33 -15 75
18 75 58 0 29 -16 39 -57 32z"/>
<path d="M10630 12876 c0 -17 27 -29 35 -16 4 6 3 15 0 20 -9 15 -35 12 -35
-4z"/>
<path d="M9840 12860 c-22 -22 -24 -33 -10 -60 22 -42 104 -30 113 17 10 53
-63 83 -103 43z"/>
<path d="M4867 12858 c-8 -23 11 -58 32 -58 26 0 46 34 28 48 -22 18 -54 23
-60 10z"/>
<path d="M10280 12853 c-19 -7 -40 -33 -40 -50 0 -23 39 -53 68 -53 56 0 71
54 26 89 -28 22 -30 23 -54 14z"/>
<path d="M5612 12827 c-26 -27 -28 -59 -6 -81 20 -21 44 -20 70 2 29 23 34 42
17 75 -17 34 -51 36 -81 4z"/>
<path d="M11210 12820 c-14 -26 -5 -40 25 -40 27 0 41 26 24 46 -16 20 -37 17
-49 -6z"/>
<path d="M10453 12808 c-37 -40 -34 -72 8 -87 41 -14 45 -14 63 5 24 23 20 70
-6 88 -30 21 -41 20 -65 -6z"/>
<path d="M11590 12814 c-9 -10 -10 -18 -2 -26 12 -12 32 -2 32 17 0 21 -16 26
-30 9z"/>
<path d="M9986 12804 c-17 -16 -21 -51 -8 -70 22 -34 82 -34 95 0 23 59 -44
113 -87 70z"/>
<path d="M4395 12800 c-8 -13 12 -40 29 -40 18 0 35 21 29 36 -6 16 -49 19
-58 4z"/>
<path d="M4656 12783 c-4 -9 -1 -23 7 -30 12 -12 17 -11 37 5 13 11 20 24 16
30 -11 18 -53 14 -60 -5z"/>
<path d="M4001 12772 c-6 -11 -8 -22 -5 -25 10 -9 34 4 34 18 0 23 -18 27 -29
7z"/>
<path d="M5420 12760 c-26 -26 -25 -55 1 -74 27 -19 59 -8 79 27 13 23 13 28
-4 46 -24 26 -50 27 -76 1z"/>
<path d="M5076 12757 c-22 -16 -14 -52 15 -68 16 -8 25 -5 49 20 37 36 31 61
-14 61 -18 0 -40 -6 -50 -13z"/>
<path d="M10843 12733 c-18 -7 -16 -40 3 -47 25 -9 54 -7 54 5 0 35 -27 55
-57 42z"/>
<path d="M10155 12705 c-35 -34 -32 -61 10 -82 53 -28 111 49 69 91 -22 23
-51 20 -79 -9z"/>
<path d="M11001 12712 c-12 -22 -6 -32 21 -32 14 0 19 6 16 22 -4 29 -24 34
-37 10z"/>
<path d="M10650 12690 c-11 -11 -20 -26 -20 -34 0 -18 38 -46 62 -46 41 0 40
68 -1 90 -17 8 -24 7 -41 -10z"/>
<path d="M4841 12687 c-32 -16 -36 -31 -15 -51 20 -21 53 -17 68 6 8 14 6 22
-9 38 -17 17 -23 18 -44 7z"/>
<path d="M4247 12683 c-4 -3 -7 -17 -7 -30 0 -18 5 -23 25 -23 25 0 51 32 40
50 -7 11 -48 13 -58 3z"/>
<path d="M5252 12674 c-27 -18 -29 -55 -4 -77 23 -21 41 -21 70 -1 32 22 30
67 -3 82 -33 15 -36 15 -63 -4z"/>
<path d="M4544 12649 c-20 -22 -4 -59 26 -59 22 0 51 36 44 55 -9 21 -52 24
-70 4z"/>
<path d="M10298 12638 c-46 -35 -17 -113 39 -106 36 4 57 53 40 89 -14 28 -54
36 -79 17z"/>
<path d="M11399 12638 c-5 -48 24 -71 60 -49 9 6 11 18 7 35 -5 21 -12 26 -36
26 -17 0 -31 -6 -31 -12z"/>
<path d="M11700 12602 c0 -4 5 -13 12 -20 18 -18 28 -15 28 8 0 13 -7 20 -20
20 -11 0 -20 -4 -20 -8z"/>
<path d="M10807 12582 c-23 -25 -21 -59 3 -72 28 -15 59 -3 71 27 19 52 -37
86 -74 45z"/>
<path d="M4738 12569 c-24 -13 -23 -44 2 -69 24 -24 34 -25 54 -4 25 25 20 63
-10 74 -30 12 -25 12 -46 -1z"/>
<path d="M5092 12553 c-31 -59 39 -111 75 -57 12 18 11 24 -8 47 -24 31 -54
35 -67 10z"/>
<path d="M11182 12558 c-7 -7 -12 -20 -12 -29 0 -24 38 -35 56 -17 12 12 12
17 -2 36 -17 25 -25 27 -42 10z"/>
<path d="M4358 12525 c-9 -21 -8 -28 7 -45 10 -11 22 -20 26 -20 13 0 39 30
39 45 0 18 -28 45 -46 45 -8 0 -20 -11 -26 -25z"/>
<path d="M10498 12533 c-9 -2 -23 -18 -32 -36 -19 -41 -4 -69 44 -78 27 -6 37
-3 56 17 30 30 30 49 -1 79 -24 25 -33 27 -67 18z"/>
<path d="M4559 12491 c-46 -37 11 -109 60 -75 23 17 28 56 9 71 -26 20 -48 21
-69 4z"/>
<path d="M10930 12490 c-26 -26 -25 -45 2 -64 41 -29 68 -16 68 33 0 17 -29
51 -43 51 -4 0 -16 -9 -27 -20z"/>
<path d="M3695 12490 c-10 -17 12 -37 25 -24 8 8 6 15 -4 23 -10 9 -16 9 -21
1z"/>
<path d="M4927 12472 c-22 -24 -21 -45 1 -65 25 -22 48 -21 72 3 24 24 25 43
4 64 -21 21 -57 20 -77 -2z"/>
<path d="M11554 12479 c-6 -10 11 -28 28 -29 15 0 20 23 7 31 -19 12 -26 11
-35 -2z"/>
<path d="M4192 12438 c-7 -7 -12 -22 -12 -35 0 -31 47 -44 67 -18 20 28 16 52
-9 59 -31 8 -32 8 -46 -6z"/>
<path d="M10654 12425 c-36 -36 -31 -70 13 -93 39 -21 82 10 83 59 0 52 -58
72 -96 34z"/>
<path d="M11345 12410 c-12 -37 42 -73 66 -44 9 11 8 20 -5 39 -20 30 -52 33
-61 5z"/>
<path d="M11651 12396 c-24 -29 16 -65 58 -51 26 8 33 31 15 50 -19 19 -58 20
-73 1z"/>
<path d="M4786 12384 c-26 -25 -2 -84 34 -84 32 0 55 46 35 73 -17 24 -51 29
-69 11z"/>
<path d="M11108 12353 c-37 -44 -20 -93 32 -93 47 0 68 61 32 93 -24 22 -45
21 -64 0z"/>
<path d="M12060 12356 c-10 -13 -10 -19 0 -31 7 -8 16 -15 20 -15 15 0 20 34
7 47 -12 12 -16 12 -27 -1z"/>
<path d="M4011 12341 c-25 -25 -26 -37 -6 -45 18 -6 58 29 53 47 -7 20 -26 19
-47 -2z"/>
<path d="M4395 12340 c-9 -27 2 -58 24 -70 14 -7 23 -4 40 14 18 19 20 28 12
49 -13 34 -66 39 -76 7z"/>
<path d="M10798 12349 c-50 -29 -41 -92 13 -104 27 -6 36 -3 50 14 17 21 18
38 4 82 -7 21 -39 25 -67 8z"/>
<path d="M4612 12312 c-26 -17 -24 -61 3 -88 24 -24 28 -25 48 -11 31 20 33
54 6 83 -24 25 -36 29 -57 16z"/>
<path d="M3485 12290 c-8 -13 4 -32 16 -25 12 8 12 35 0 35 -6 0 -13 -4 -16
-10z"/>
<path d="M11477 12282 c-10 -10 -17 -24 -17 -30 0 -19 39 -39 66 -34 31 6 51
47 33 68 -16 20 -63 17 -82 -4z"/>
<path d="M4235 12266 c-14 -10 -15 -16 -4 -39 22 -48 80 -27 64 23 -7 23 -39
31 -60 16z"/>
<path d="M11824 12247 c-28 -15 -28 -14 -11 -40 32 -50 77 -38 63 17 -7 29
-26 37 -52 23z"/>
<path d="M10960 12218 c-28 -31 -26 -66 6 -80 52 -24 102 31 74 81 -14 28 -54
27 -80 -1z"/>
<path d="M11241 12218 c-11 -31 7 -67 36 -74 47 -12 72 45 35 79 -27 24 -61
21 -71 -5z"/>
<path d="M11687 12214 c-13 -14 -7 -43 12 -53 26 -14 50 13 34 37 -11 19 -35
27 -46 16z"/>
<path d="M3860 12192 c-19 -16 -19 -19 -5 -39 19 -27 53 -20 61 14 10 39 -21
53 -56 25z"/>
<path d="M4437 12179 c-18 -25 -11 -56 18 -75 41 -27 85 17 62 61 -20 40 -58
47 -80 14z"/>
<path d="M4118 12159 c-22 -13 -24 -62 -2 -83 18 -19 47 -8 64 24 14 26 13 36
-6 54 -18 18 -32 20 -56 5z"/>
<path d="M12035 12143 c-24 -24 -15 -57 16 -61 29 -3 44 18 34 48 -8 26 -32
32 -50 13z"/>
<path d="M11142 12129 c-33 -13 -47 -56 -27 -85 31 -48 99 -19 93 39 -4 37
-34 59 -66 46z"/>
<path d="M11396 12111 c-23 -25 -18 -49 15 -73 21 -16 31 -18 48 -9 32 17 42
43 28 72 -16 32 -66 38 -91 10z"/>
<path d="M3531 12107 c-8 -10 -7 -19 4 -33 15 -18 15 -18 29 -1 26 34 -6 66
-33 34z"/>
<path d="M4279 12059 c-9 -18 -7 -26 9 -48 24 -33 48 -38 73 -15 25 22 24 39
-3 64 -28 26 -64 26 -79 -1z"/>
<path d="M11759 12049 c-25 -25 -24 -44 3 -63 30 -21 45 -20 58 5 27 50 -22
97 -61 58z"/>
<path d="M3726 12025 c-6 -17 17 -31 34 -20 5 3 10 13 10 21 0 19 -36 18 -44
-1z"/>
<path d="M3944 12012 c-24 -16 -33 -48 -21 -73 16 -30 44 -36 62 -12 20 25 18
57 -3 76 -21 19 -23 20 -38 9z"/>
<path d="M11273 11985 c-44 -30 -30 -86 24 -100 51 -12 85 62 45 98 -23 21
-41 21 -69 2z"/>
<path d="M11591 11964 c-50 -36 2 -94 54 -60 25 17 34 50 15 61 -21 13 -49 13
-69 -1z"/>
<path d="M4163 11928 c-28 -14 -29 -42 -3 -68 25 -25 42 -25 63 -2 22 24 22
51 0 68 -21 16 -31 16 -60 2z"/>
<path d="M11381 11894 c-27 -34 -26 -50 3 -79 37 -37 85 -11 86 47 0 57 -54
76 -89 32z"/>
<path d="M11953 11897 c-33 -15 -40 -47 -14 -68 39 -32 95 7 72 50 -14 25 -31
30 -58 18z"/>
<path d="M11722 11871 c-26 -22 -27 -34 -7 -51 36 -30 92 22 58 55 -19 19 -25
19 -51 -4z"/>
<path d="M3069 11864 c-10 -13 -10 -17 1 -24 17 -10 40 5 40 26 0 19 -25 18
-41 -2z"/>
<path d="M4039 11843 c-42 -10 -40 -86 3 -102 26 -10 42 1 52 36 8 26 -31 72
-55 66z"/>
<path d="M12730 11836 c0 -9 7 -16 16 -16 9 0 14 5 12 12 -6 18 -28 21 -28 4z"/>
<path d="M3790 11825 c-10 -12 -9 -20 4 -40 20 -30 51 -33 66 -5 8 15 6 24
-10 40 -24 24 -43 25 -60 5z"/>
<path d="M3280 11811 c-8 -15 -6 -24 7 -37 16 -15 18 -15 35 6 10 12 18 28 18
36 0 21 -48 17 -60 -5z"/>
<path d="M3455 11810 c-7 -12 2 -30 15 -30 5 0 14 9 20 20 9 17 8 20 -9 20
-11 0 -23 -4 -26 -10z"/>
<path d="M12536 11803 c-11 -11 -6 -23 9 -23 8 0 15 4 15 9 0 13 -16 22 -24
14z"/>
<path d="M12279 11768 c-21 -39 40 -65 64 -27 15 24 1 49 -27 49 -16 0 -30 -8
-37 -22z"/>
<path d="M12056 11758 c-22 -30 0 -63 40 -63 24 0 30 5 32 28 6 54 -43 77 -72
35z"/>
<path d="M11846 11741 c-21 -23 -20 -37 4 -61 29 -29 68 -26 82 5 10 22 9 29
-8 46 -27 27 -59 31 -78 10z"/>
<path d="M11562 11738 c-34 -17 -40 -57 -12 -80 30 -24 55 -23 80 4 25 27 25
43 0 68 -22 22 -35 24 -68 8z"/>
<path d="M3683 11710 c-34 -14 -28 -65 7 -70 29 -4 37 0 49 26 9 20 9 30 0 40
-13 16 -24 17 -56 4z"/>
<path d="M3909 11701 c-29 -23 -28 -69 1 -93 26 -21 42 -13 66 34 27 51 -23
95 -67 59z"/>
<path d="M12462 11643 c5 -26 38 -29 38 -4 0 15 -6 21 -21 21 -14 0 -19 -5
-17 -17z"/>
<path d="M12258 11639 c-23 -13 -23 -42 0 -62 22 -20 43 -22 60 -5 17 17 15
42 -6 61 -21 19 -30 20 -54 6z"/>
<path d="M11683 11605 c-44 -31 -32 -71 29 -94 36 -13 71 13 71 54 0 49 -55
71 -100 40z"/>
<path d="M3302 11601 c-20 -12 -10 -46 15 -49 14 -2 23 3 28 17 11 35 -12 52
-43 32z"/>
<path d="M11986 11588 c-17 -23 -10 -55 15 -68 37 -20 66 11 49 54 -12 32 -46
40 -64 14z"/>
<path d="M3514 11575 c-8 -21 2 -44 22 -52 21 -8 56 31 47 52 -7 20 -62 19
-69 0z"/>
<path d="M3756 11554 c-9 -8 -16 -19 -16 -22 0 -13 31 -52 49 -62 24 -12 61
21 61 55 0 41 -63 61 -94 29z"/>
<path d="M12536 11513 c-14 -14 -5 -51 14 -56 21 -5 29 8 22 35 -4 18 -26 30
-36 21z"/>
<path d="M11807 11489 c-33 -26 -34 -43 -2 -74 32 -33 68 -32 89 0 38 58 -32
118 -87 74z"/>
<path d="M12355 11458 c-15 -22 -14 -24 6 -40 26 -22 43 -23 59 -3 10 12 10
21 2 40 -14 31 -46 32 -67 3z"/>
<path d="M12787 11474 c-13 -13 -7 -42 10 -48 23 -9 40 10 27 31 -12 20 -27
26 -37 17z"/>
<path d="M3168 11459 c-22 -12 -23 -42 -3 -59 12 -10 20 -9 41 4 48 32 12 85
-38 55z"/>
<path d="M3409 11440 c-25 -15 -33 -59 -14 -80 27 -30 60 -16 70 31 10 47 -18
71 -56 49z"/>
<path d="M3658 11418 c-24 -20 -28 -44 -12 -67 22 -30 51 -26 69 9 27 51 -14
92 -57 58z"/>
<path d="M12121 11414 c-29 -21 -27 -57 5 -74 27 -15 49 -8 68 23 23 37 -35
77 -73 51z"/>
<path d="M11950 11337 c-35 -18 -38 -59 -6 -85 31 -24 71 -18 92 14 20 29 11
58 -22 72 -31 15 -33 15 -64 -1z"/>
<path d="M3270 11310 c-15 -15 -19 -28 -14 -43 8 -28 4 -24 36 -32 23 -6 29
-3 39 18 14 31 7 52 -20 67 -17 8 -25 6 -41 -10z"/>
<path d="M2842 11308 c-16 -16 -15 -45 1 -51 20 -8 36 6 39 33 3 27 -20 38
-40 18z"/>
<path d="M3020 11310 c-18 -11 -3 -43 23 -48 17 -4 41 33 32 48 -8 13 -35 13
-55 0z"/>
<path d="M12216 11299 c-31 -24 -33 -49 -8 -72 24 -22 55 -21 75 1 46 51 -14
113 -67 71z"/>
<path d="M12667 11309 c-32 -19 -14 -69 25 -69 13 0 18 8 18 29 0 36 -19 53
-43 40z"/>
<path d="M12434 11286 c-9 -24 12 -44 28 -28 10 10 8 16 -5 29 -15 15 -17 15
-23 -1z"/>
<path d="M3533 11275 c-46 -32 -15 -111 38 -98 31 8 50 54 36 84 -15 29 -44
35 -74 14z"/>
<path d="M12043 11206 c-27 -24 -27 -26 -13 -53 31 -56 110 -36 110 27 0 52
-52 65 -97 26z"/>
<path d="M13020 11191 c0 -11 4 -22 9 -25 12 -8 34 21 26 34 -11 17 -35 11
-35 -9z"/>
<path d="M12820 11176 c-18 -22 -5 -48 22 -44 17 2 23 10 23 28 0 29 -26 38
-45 16z"/>
<path d="M12333 11160 c-33 -13 -32 -66 1 -82 32 -14 54 -5 62 27 4 18 1 32
-11 45 -20 22 -21 22 -52 10z"/>
<path d="M2976 11144 c-8 -21 -8 -21 11 -28 17 -7 33 9 33 32 0 18 -37 15 -44
-4z"/>
<path d="M3184 11119 c-39 -14 -40 -60 -3 -80 13 -6 25 -6 39 1 21 11 36 52
26 68 -9 14 -39 20 -62 11z"/>
<path d="M3410 11106 c-16 -30 -6 -73 19 -81 47 -15 84 39 56 81 -20 32 -58
31 -75 0z"/>
<path d="M12152 11034 c-29 -20 -28 -57 2 -74 50 -26 104 16 85 68 -10 27 -53
30 -87 6z"/>
<path d="M12880 11010 c-12 -7 -12 -13 -4 -27 17 -28 49 -23 49 7 0 27 -21 36
-45 20z"/>
<path d="M13354 11009 c-8 -14 11 -33 25 -25 6 4 11 11 11 16 0 13 -29 20 -36
9z"/>
<path d="M13116 10991 c-15 -16 -15 -19 -1 -31 12 -10 18 -10 30 0 8 7 15 18
15 25 0 21 -27 25 -44 6z"/>
<path d="M2626 10987 c-23 -17 -13 -57 13 -57 26 0 44 25 36 50 -7 23 -24 26
-49 7z"/>
<path d="M12507 10980 c-27 -21 -29 -38 -8 -64 17 -21 34 -20 61 2 17 13 21
24 16 40 -12 36 -40 45 -69 22z"/>
<path d="M2882 10968 c-28 -28 3 -67 43 -52 15 6 24 33 18 52 -6 15 -45 16
-61 0z"/>
<path d="M3303 10965 c-27 -19 -35 -52 -16 -70 32 -32 73 -7 73 44 0 29 -32
44 -57 26z"/>
<path d="M12689 10968 c-2 -25 3 -43 16 -57 20 -20 47 4 43 38 -2 20 -9 27
-30 29 -18 2 -28 -2 -29 -10z"/>
<path d="M3061 10956 c-9 -10 -8 -16 3 -26 19 -15 36 -5 36 21 0 22 -22 25
-39 5z"/>
<path d="M12283 10898 c-54 -14 -56 -76 -3 -103 26 -13 30 -13 54 6 54 43 16
116 -51 97z"/>
<path d="M2723 10833 c-10 -3 -9 -11 2 -34 18 -34 26 -36 42 -9 10 15 10 22
-3 35 -16 16 -21 17 -41 8z"/>
<path d="M3178 10829 c-10 -5 -18 -20 -18 -33 0 -49 73 -77 89 -34 11 32 3 54
-25 67 -29 13 -25 13 -46 0z"/>
<path d="M12526 10824 c-32 -31 -10 -94 33 -94 26 0 41 20 41 55 0 51 -41 73
-74 39z"/>
<path d="M12792 10808 c-34 -34 12 -75 48 -43 15 14 17 22 9 36 -11 22 -39 25
-57 7z"/>
<path d="M13040 10805 c-11 -13 -11 -19 3 -32 21 -21 49 -9 45 19 -4 28 -30
35 -48 13z"/>
<path d="M13284 10805 c-8 -19 3 -35 26 -35 26 0 33 28 10 40 -25 13 -30 13
-36 -5z"/>
<path d="M2958 10783 c-39 -10 -34 -71 8 -94 24 -12 28 -12 45 10 25 31 24 56
-3 75 -12 9 -25 15 -28 15 -3 -1 -13 -3 -22 -6z"/>
<path d="M12372 10740 c-26 -24 -25 -19 -11 -58 9 -28 28 -41 66 -48 15 -3 53
33 53 51 0 27 -13 46 -41 60 -36 19 -41 19 -67 -5z"/>
<path d="M2562 10708 c-19 -19 10 -70 34 -61 22 8 18 60 -5 66 -11 2 -24 0
-29 -5z"/>
<path d="M12927 10698 c-22 -17 -26 -58 -6 -71 22 -14 66 -1 72 22 5 22 -18
61 -37 61 -7 0 -20 -6 -29 -12z"/>
<path d="M3078 10668 c-38 -31 -20 -98 27 -98 25 0 55 33 55 61 0 19 -31 49
-51 49 -9 0 -22 -6 -31 -12z"/>
<path d="M2816 10651 c-38 -42 12 -88 60 -56 37 24 30 69 -12 73 -20 2 -36 -4
-48 -17z"/>
<path d="M12666 10644 c-21 -20 -20 -37 2 -57 25 -23 58 -21 76 4 34 49 -35
96 -78 53z"/>
<path d="M12467 10582 c-23 -25 -21 -57 5 -82 28 -26 54 -25 72 3 15 22 16 35
2 75 -9 28 -55 30 -79 4z"/>
<path d="M13178 10539 c-24 -13 -23 -41 2 -57 17 -10 23 -9 40 8 16 16 18 25
10 40 -12 22 -26 25 -52 9z"/>
<path d="M2754 10530 c-43 -17 -32 -102 14 -108 16 -3 26 5 38 31 9 20 14 42
11 50 -9 23 -39 36 -63 27z"/>
<path d="M2962 10518 c-20 -20 -14 -55 13 -72 48 -31 75 -17 75 39 0 38 -61
60 -88 33z"/>
<path d="M2333 10513 c-18 -7 -16 -42 2 -49 20 -8 45 13 45 37 0 19 -20 24
-47 12z"/>
<path d="M12778 10509 c-22 -12 -23 -52 -3 -69 23 -19 62 -4 69 26 11 44 -24
68 -66 43z"/>
<path d="M2575 10497 c-13 -10 -16 -21 -12 -39 9 -34 43 -42 68 -17 26 26 24
48 -7 59 -31 12 -27 13 -49 -3z"/>
<path d="M12960 10455 c-25 -30 19 -83 59 -70 29 9 32 31 10 59 -23 29 -50 33
-69 11z"/>
<path d="M12557 10422 c-24 -27 -21 -59 8 -78 21 -13 31 -15 50 -6 28 13 43
57 28 81 -15 24 -66 26 -86 3z"/>
<path d="M13440 10405 c-11 -13 -10 -18 6 -30 23 -17 38 -5 29 24 -8 25 -18
27 -35 6z"/>
<path d="M2913 10360 c-42 -17 -38 -81 7 -95 26 -8 65 16 73 44 3 15 -3 27
-20 41 -29 22 -29 22 -60 10z"/>
<path d="M13120 10327 c-17 -9 -26 -22 -28 -44 -3 -28 1 -33 24 -39 21 -6 31
-2 46 16 22 28 22 33 1 59 -16 18 -21 19 -43 8z"/>
<path d="M2484 10305 c-10 -25 4 -62 25 -68 27 -7 41 11 41 50 0 30 -3 33 -30
33 -18 0 -33 -6 -36 -15z"/>
<path d="M12877 10302 c-22 -24 -21 -45 2 -66 26 -24 54 -17 65 17 19 52 -32
88 -67 49z"/>
<path d="M2287 10292 c-21 -23 -22 -48 -2 -56 23 -8 45 4 51 30 11 43 -19 59
-49 26z"/>
<path d="M2652 10284 c-27 -18 -29 -55 -4 -77 23 -21 46 -22 61 -3 21 25 21
56 1 76 -24 24 -29 24 -58 4z"/>
<path d="M2013 10273 c-18 -7 -16 -30 3 -37 21 -8 34 1 34 25 0 18 -12 23 -37
12z"/>
<path d="M13564 10256 c-8 -21 3 -36 27 -36 15 0 20 6 17 22 -4 27 -35 37 -44
14z"/>
<path d="M12647 10232 c-10 -10 -17 -23 -17 -29 0 -19 41 -63 59 -63 22 0 61
40 61 62 0 44 -72 64 -103 30z"/>
<path d="M13320 10235 c-15 -18 -10 -45 13 -59 35 -21 57 43 23 66 -16 11 -22
10 -36 -7z"/>
<path d="M2824 10219 c-30 -10 -36 -35 -19 -69 29 -57 98 -47 98 14 0 45 -37
71 -79 55z"/>
<path d="M2366 10135 c-20 -20 -20 -39 -2 -55 35 -28 93 11 70 48 -15 23 -48
27 -68 7z"/>
<path d="M12936 10105 c-21 -21 -20 -34 3 -64 14 -19 24 -22 44 -17 30 7 46
49 30 75 -14 22 -57 25 -77 6z"/>
<path d="M13162 10112 c-21 -14 -21 -45 1 -69 16 -18 24 -20 39 -12 27 15 22
83 -7 87 -11 1 -26 -2 -33 -6z"/>
<path d="M2001 10093 c-10 -19 -6 -33 10 -33 12 0 18 26 9 40 -6 10 -10 8 -19
-7z"/>
<path d="M2559 10090 l-24 -20 29 -25 c35 -32 59 -19 54 29 -4 38 -26 44 -59
16z"/>
<path d="M12717 10082 c-25 -28 -21 -57 13 -86 32 -27 54 -25 70 5 14 25 12
73 -2 87 -18 18 -63 14 -81 -6z"/>
<path d="M13357 10083 c-12 -11 -8 -40 8 -53 19 -16 45 2 40 28 -2 9 -4 20 -4
25 -1 9 -35 9 -44 0z"/>
<path d="M2740 10000 c-25 -25 -25 -52 -1 -74 43 -39 103 11 81 68 -12 32 -51
35 -80 6z"/>
<path d="M12820 9927 c-33 -16 -37 -55 -10 -85 25 -27 61 -28 83 -4 23 25 21
57 -5 82 -25 23 -34 24 -68 7z"/>
<path d="M2515 9906 c-33 -27 -31 -54 7 -76 39 -21 63 -5 63 45 0 50 -29 63
-70 31z"/>
<path d="M13044 9920 c-32 -12 -38 -28 -20 -55 20 -30 47 -32 71 -5 30 33 -7
76 -51 60z"/>
<path d="M2303 9899 c-33 -12 -40 -49 -13 -71 27 -22 34 -22 54 -2 37 36 6 91
-41 73z"/>
<path d="M2642 9834 c-29 -20 -28 -49 3 -79 31 -28 56 -26 72 6 17 33 16 46
-7 69 -24 24 -38 25 -68 4z"/>
<path d="M13106 9788 c-21 -29 -20 -40 4 -66 25 -26 43 -28 64 -6 32 32 10 94
-34 94 -10 0 -26 -10 -34 -22z"/>
<path d="M13740 9781 c0 -23 30 -37 41 -19 9 15 -8 38 -27 38 -8 0 -14 -9 -14
-19z"/>
<path d="M2418 9777 c-27 -21 -26 -49 4 -66 26 -15 29 -15 49 6 44 44 -3 98
-53 60z"/>
<path d="M13340 9769 c-9 -16 -8 -26 5 -45 20 -31 47 -28 55 6 14 52 -36 84
-60 39z"/>
<path d="M2214 9765 c-7 -18 12 -45 32 -45 18 0 26 17 19 40 -7 23 -43 27 -51
5z"/>
<path d="M12904 9720 c-62 -23 -17 -105 46 -85 11 3 24 14 29 23 9 18 -2 61
-16 63 -4 0 -15 2 -23 3 -8 2 -24 0 -36 -4z"/>
<path d="M1763 9704 c-9 -4 -9 -11 -1 -29 21 -46 64 -39 52 8 -6 26 -22 32
-51 21z"/>
<path d="M2026 9685 c-36 -37 -6 -87 40 -66 21 9 25 17 22 44 -4 37 -35 49
-62 22z"/>
<path d="M2593 9669 c-61 -23 -44 -99 22 -99 36 0 55 20 55 59 0 27 -47 52
-77 40z"/>
<path d="M13593 9619 c-13 -4 -23 -13 -23 -18 0 -12 29 -41 41 -41 15 0 23 29
13 49 -7 15 -14 17 -31 10z"/>
<path d="M2173 9588 c-10 -13 -10 -36 1 -64 4 -9 15 -14 28 -12 17 2 24 11 26
31 5 45 -31 75 -55 45z"/>
<path d="M2351 9586 c-26 -32 33 -82 64 -56 19 16 19 35 -1 54 -19 20 -48 21
-63 2z"/>
<path d="M13145 9574 c-14 -14 -14 -19 -2 -38 19 -29 49 -31 65 -6 29 47 -23
83 -63 44z"/>
<path d="M13325 9563 c-20 -19 -19 -36 3 -64 22 -26 48 -21 61 13 17 44 -33
83 -64 51z"/>
<path d="M12958 9546 c-24 -18 -22 -51 4 -76 28 -26 44 -25 73 5 43 42 27 85
-29 85 -17 0 -39 -7 -48 -14z"/>
<path d="M1974 9542 c-6 -4 -16 -17 -22 -29 -20 -38 30 -71 57 -39 28 34 -2
91 -35 68z"/>
<path d="M13625 9479 c-7 -10 12 -49 23 -49 17 1 34 19 29 33 -6 17 -45 29
-52 16z"/>
<path d="M2512 9464 c-43 -30 -14 -94 43 -94 45 0 62 61 27 93 -23 21 -41 21
-70 1z"/>
<path d="M1692 9428 c-9 -9 -8 -16 5 -30 9 -10 19 -18 23 -18 13 0 18 38 7 49
-14 14 -20 14 -35 -1z"/>
<path d="M2120 9390 c-33 -33 7 -83 49 -61 24 13 30 31 20 59 -10 28 -42 29
-69 2z"/>
<path d="M2294 9377 c-36 -31 -40 -71 -7 -86 42 -19 84 17 75 65 -7 39 -36 48
-68 21z"/>
<path d="M13193 9390 c-49 -20 -11 -99 40 -86 33 8 44 51 21 77 -19 21 -28 22
-61 9z"/>
<path d="M12984 9363 c-9 -34 14 -77 44 -81 26 -4 72 39 72 67 0 25 -28 41
-74 41 -30 0 -37 -4 -42 -27z"/>
<path d="M1900 9337 c-29 -14 -37 -41 -20 -62 27 -32 73 -5 66 38 -4 29 -19
37 -46 24z"/>
<path d="M13407 9343 c-25 -24 17 -79 52 -68 32 10 44 40 25 59 -15 16 -65 22
-77 9z"/>
<path d="M2455 9308 c-41 -32 -26 -75 32 -92 24 -8 63 23 59 46 -11 61 -48 80
-91 46z"/>
<path d="M13648 9293 c-23 -6 -23 -39 -1 -47 9 -4 23 0 32 9 13 13 13 17 1 28
-8 8 -23 12 -32 10z"/>
<path d="M13047 9234 c-31 -17 -30 -12 -16 -53 20 -58 90 -48 102 15 8 42 -39
62 -86 38z"/>
<path d="M13880 9224 c0 -17 22 -14 28 4 2 7 -3 12 -12 12 -9 0 -16 -7 -16
-16z"/>
<path d="M13248 9209 c-24 -13 -23 -40 2 -67 26 -27 35 -27 60 -2 21 21 18 46
-8 68 -19 14 -31 15 -54 1z"/>
<path d="M2266 9179 c-28 -22 -33 -48 -14 -67 34 -34 102 14 79 56 -16 30 -37
33 -65 11z"/>
<path d="M1543 9174 c-9 -25 12 -38 31 -19 9 9 14 21 11 26 -10 14 -35 10 -42
-7z"/>
<path d="M13500 9167 c-31 -15 -36 -39 -14 -61 14 -15 19 -15 38 -3 45 30 24
88 -24 64z"/>
<path d="M1870 9130 c-16 -16 -18 -25 -10 -40 19 -35 60 -17 60 26 0 30 -26
38 -50 14z"/>
<path d="M2003 9134 c-9 -25 11 -49 45 -52 24 -2 32 2 37 18 4 12 1 27 -5 35
-17 20 -69 19 -77 -1z"/>
<path d="M2428 9109 c-40 -23 -8 -89 43 -89 31 0 49 17 49 45 0 43 -52 68 -92
44z"/>
<path d="M13692 9063 c2 -22 8 -27 23 -25 31 5 38 18 20 36 -26 26 -47 20 -43
-11z"/>
<path d="M13096 9057 c-26 -19 -14 -70 21 -86 49 -22 93 29 61 72 -18 23 -60
30 -82 14z"/>
<path d="M13293 9060 c-13 -5 -24 -15 -24 -22 -5 -54 17 -84 55 -74 44 11 46
108 2 105 -6 0 -21 -4 -33 -9z"/>
<path d="M1670 9041 c0 -22 29 -36 43 -22 15 15 0 41 -23 41 -13 0 -20 -7 -20
-19z"/>
<path d="M13953 9012 c-8 -5 -9 -13 -3 -22 7 -12 10 -12 16 3 8 21 3 29 -13
19z"/>
<path d="M2197 8992 c-34 -38 -10 -102 39 -102 25 0 38 10 53 38 29 55 -50
111 -92 64z"/>
<path d="M2381 8933 c-35 -29 -35 -61 0 -79 61 -31 101 13 75 82 -7 19 -49 18
-75 -3z"/>
<path d="M13543 8943 c-19 -7 -16 -40 4 -52 21 -11 53 3 53 24 0 12 -31 37
-42 34 -2 0 -9 -3 -15 -6z"/>
<path d="M2012 8920 c-26 -25 -27 -29 -6 -58 17 -24 53 -29 72 -10 19 19 15
66 -7 78 -27 14 -34 13 -59 -10z"/>
<path d="M1801 8901 c-10 -17 -7 -23 14 -37 34 -22 57 -12 53 23 -4 36 -51 46
-67 14z"/>
<path d="M13741 8902 c-7 -14 -6 -25 5 -40 20 -29 42 -28 50 3 11 45 -35 75
-55 37z"/>
<path d="M14100 8870 c0 -5 7 -10 15 -10 8 0 15 5 15 10 0 6 -7 10 -15 10 -8
0 -15 -4 -15 -10z"/>
<path d="M2151 8839 c-24 -26 -27 -52 -8 -66 47 -37 97 -7 81 49 -12 41 -44
48 -73 17z"/>
<path d="M13375 8834 c-16 -16 -13 -46 8 -72 17 -22 50 -9 64 25 11 27 10 34
-3 47 -20 20 -48 20 -69 0z"/>
<path d="M13143 8829 c-42 -15 -21 -75 29 -84 28 -5 58 16 58 41 0 16 -32 47
-52 50 -7 1 -23 -2 -35 -7z"/>
<path d="M1991 8784 c-27 -35 -26 -42 5 -56 23 -11 29 -10 45 11 17 21 18 27
6 44 -20 31 -32 31 -56 1z"/>
<path d="M1362 8783 c5 -25 28 -28 28 -4 0 12 -6 21 -16 21 -9 0 -14 -7 -12
-17z"/>
<path d="M2326 8764 c-25 -25 -24 -71 2 -91 42 -31 102 -3 102 49 0 49 -69 78
-104 42z"/>
<path d="M13567 8762 c-34 -38 -10 -80 36 -63 30 12 44 46 27 66 -17 20 -44
19 -63 -3z"/>
<path d="M1505 8679 c-9 -29 21 -55 42 -37 21 17 12 52 -14 56 -15 2 -23 -4
-28 -19z"/>
<path d="M1723 8690 c-30 -12 -29 -44 2 -58 31 -14 55 -6 55 18 0 15 -25 52
-33 49 -1 0 -12 -4 -24 -9z"/>
<path d="M13803 8689 c-25 -9 -30 -38 -11 -57 19 -19 37 -14 50 13 15 34 -6
57 -39 44z"/>
<path d="M2130 8667 c-16 -8 -26 -23 -28 -40 -7 -55 45 -81 84 -42 21 21 22
28 13 52 -9 25 -26 43 -39 43 -3 0 -16 -6 -30 -13z"/>
<path d="M13355 8656 c-16 -12 -18 -19 -10 -43 14 -38 48 -42 63 -8 9 19 9 32
2 46 -13 23 -29 24 -55 5z"/>
<path d="M13178 8649 c-34 -19 -14 -75 28 -83 28 -6 65 28 57 52 -13 37 -51
51 -85 31z"/>
<path d="M1962 8588 c-26 -26 -3 -88 33 -88 32 0 45 13 45 44 0 37 -15 56 -45
56 -12 0 -26 -5 -33 -12z"/>
<path d="M2341 8590 c-33 -8 -62 -49 -55 -77 8 -29 68 -51 90 -32 21 17 36 57
29 78 -7 24 -37 38 -64 31z"/>
<path d="M13592 8568 c-16 -16 -15 -40 1 -62 18 -25 55 -13 63 20 11 42 -34
72 -64 42z"/>
<path d="M1730 8485 c-13 -34 3 -75 30 -75 25 0 37 42 21 76 -14 31 -39 31
-51 -1z"/>
<path d="M13189 8479 c-22 -22 -19 -50 9 -81 20 -24 45 -23 67 2 27 29 28 57
5 80 -26 26 -55 25 -81 -1z"/>
<path d="M8837 8478 c-7 -4 -11 -141 -12 -445 -2 -459 -2 -461 -48 -549 -24
-45 -85 -101 -133 -121 l-44 -18 0 -112 0 -112 33 6 c51 9 151 49 195 77 66
42 121 106 162 191 66 135 71 180 68 664 l-3 424 -103 1 c-57 1 -109 -2 -115
-6z"/>
<path d="M11490 8474 c-272 -44 -469 -204 -556 -450 -38 -109 -44 -272 -14
-388 33 -124 108 -258 181 -320 101 -85 203 -142 311 -171 48 -14 118 -19 296
-22 l232 -5 1 28 c1 32 1 175 0 186 -1 4 -88 8 -193 8 -204 0 -222 2 -296 26
-145 48 -246 160 -287 315 -18 66 -13 204 9 273 48 149 167 258 328 300 35 9
118 14 243 15 104 1 191 3 193 5 3 4 6 132 3 188 l-1 26 -187 -1 c-104 0 -222
-6 -263 -13z"/>
<path d="M13434 8464 c-14 -54 47 -69 67 -17 12 32 4 43 -31 43 -23 0 -31 -5
-36 -26z"/>
<path d="M3629 8443 c0 -21 -1 -326 -1 -678 l0 -640 474 -3 475 -2 -1 107 -1
108 -260 2 c-143 2 -304 3 -357 3 l-98 0 1 233 c0 127 0 384 -1 570 l0 337
-115 0 -115 0 -1 -37z"/>
<path d="M5058 8463 c-2 -10 -3 -58 -3 -108 l0 -90 490 -2 c270 -1 499 0 510
2 19 4 20 12 20 110 l0 105 -506 0 c-474 0 -507 -1 -511 -17z"/>
<path d="M6530 8375 l0 -105 258 -1 c141 0 271 -2 287 -3 111 -12 179 -64 189
-144 12 -86 -16 -144 -84 -179 -63 -32 -131 -38 -408 -38 l-243 0 3 -100 3
-100 305 -1 c324 -1 350 -4 410 -34 55 -28 83 -73 88 -140 7 -91 -32 -145
-128 -178 -56 -20 -49 -19 -597 -22 l-83 0 0 -105 0 -106 323 1 c253 1 338 4
392 17 148 33 257 108 304 209 32 67 39 181 16 259 -21 75 -97 153 -187 194
l-63 28 41 26 c92 57 148 162 148 276 0 168 -98 285 -279 331 -70 18 -111 20
-387 20 l-308 0 0 -105z"/>
<path d="M7931 8038 c1 -321 5 -460 14 -504 22 -103 75 -205 142 -271 53 -51
143 -107 191 -118 10 -2 33 -9 52 -14 58 -18 57 -20 56 101 l-1 111 -55 28
c-68 35 -113 85 -141 158 -24 61 -29 183 -29 709 l0 242 -115 0 -116 0 2 -442z"/>
<path d="M9379 8473 c-1 -10 -1 -160 0 -189 1 -21 3 -21 334 -22 313 0 335 -1
388 -21 92 -35 134 -88 142 -180 7 -78 -10 -128 -59 -177 -71 -72 -105 -77
-476 -78 -174 -1 -319 -4 -323 -8 -5 -5 -10 -493 -6 -645 l1 -33 118 0 118 0
-1 235 c0 129 3 236 7 236 22 4 275 5 285 1 7 -2 86 -107 175 -234 89 -127
167 -232 173 -234 6 -3 70 -3 143 -2 l131 3 -179 250 c-99 138 -180 253 -180
258 0 4 5 7 11 7 6 0 41 14 77 32 73 34 150 104 180 165 71 139 66 328 -12
443 -59 88 -120 131 -240 173 -57 19 -86 21 -433 25 -205 2 -373 0 -374 -5z"/>
<path d="M1576 8454 c-20 -20 -20 -40 0 -48 28 -11 34 -7 34 23 0 37 -13 46
-34 25z"/>
<path d="M13830 8450 c0 -13 5 -20 13 -17 6 2 12 10 12 17 0 7 -6 15 -12 18
-8 2 -13 -5 -13 -18z"/>
<path d="M2108 8420 c-28 -28 -29 -32 -15 -53 28 -43 97 -29 97 21 0 59 -39
74 -82 32z"/>
<path d="M1876 8418 c-24 -13 -20 -51 9 -78 31 -29 58 -19 63 24 5 44 -35 75
-72 54z"/>
<path d="M14010 8391 c0 -27 15 -34 31 -15 10 13 10 17 -2 25 -22 13 -29 11
-29 -10z"/>
<path d="M2286 8387 c-20 -15 -25 -70 -7 -91 31 -37 104 -14 96 31 -2 10 -4
23 -4 30 -1 18 -30 43 -50 43 -9 0 -25 -6 -35 -13z"/>
<path d="M13613 8354 c-8 -22 9 -48 36 -52 26 -4 37 19 21 47 -13 25 -48 28
-57 5z"/>
<path d="M13213 8290 c-12 -5 -25 -20 -28 -32 -14 -53 38 -114 73 -87 47 36
55 76 22 109 -22 22 -33 23 -67 10z"/>
<path d="M1732 8264 c4 -21 22 -23 26 -1 2 10 -3 17 -13 17 -10 0 -15 -6 -13
-16z"/>
<path d="M13383 8273 c-18 -7 -16 -48 3 -67 35 -35 92 -9 80 38 -7 29 -49 43
-83 29z"/>
<path d="M13822 8254 c3 -17 21 -21 26 -6 1 5 -4 12 -13 16 -11 4 -15 1 -13
-10z"/>
<path d="M1538 8253 c-24 -6 -23 -36 2 -58 24 -22 50 -13 50 18 0 22 -17 48
-29 46 -4 -1 -14 -3 -23 -6z"/>
<path d="M2123 8227 c-44 -20 -19 -87 31 -87 34 0 49 22 37 53 -13 34 -40 47
-68 34z"/>
<path d="M2262 8164 c-32 -22 -26 -70 11 -98 26 -19 30 -19 55 -5 37 20 43 80
10 103 -28 20 -48 20 -76 0z"/>
<path d="M1860 8130 c-18 -34 -9 -65 22 -68 35 -4 52 24 35 59 -16 31 -43 36
-57 9z"/>
<path d="M13683 8134 c-14 -37 34 -67 59 -37 10 13 8 19 -11 34 -29 23 -40 24
-48 3z"/>
<path d="M13222 8078 c-18 -18 -14 -52 8 -76 21 -23 37 -26 64 -16 21 8 21 67
0 88 -18 19 -55 21 -72 4z"/>
<path d="M14075 8080 c-8 -14 3 -30 21 -30 8 0 14 9 14 20 0 21 -24 28 -35 10z"/>
<path d="M1682 8068 c-26 -26 -3 -68 36 -62 6 1 16 2 21 3 15 2 21 32 11 52
-12 21 -50 25 -68 7z"/>
<path d="M13471 8046 c-13 -16 0 -60 21 -68 21 -8 55 9 61 31 10 39 -56 69
-82 37z"/>
<path d="M2113 8020 c-44 -18 -51 -69 -12 -90 27 -15 54 -12 72 8 22 25 21 48
-3 72 -22 22 -25 23 -57 10z"/>
<path d="M2270 7976 c-57 -28 -57 -89 0 -101 43 -9 80 16 80 54 0 46 -38 69
-80 47z"/>
<path d="M1884 7953 c-11 -26 -11 -36 -2 -54 12 -26 47 -30 68 -9 16 16 18 24
9 50 -9 24 -17 30 -39 30 -17 0 -31 -7 -36 -17z"/>
<path d="M13865 7959 c-10 -15 3 -25 16 -12 7 7 7 13 1 17 -6 3 -14 1 -17 -5z"/>
<path d="M1499 7944 c-9 -11 -10 -20 -3 -31 24 -38 75 -13 54 26 -13 25 -33
27 -51 5z"/>
<path d="M13612 7918 c-13 -17 3 -58 22 -58 25 0 39 36 20 54 -19 19 -28 20
-42 4z"/>
<path d="M5056 7910 c-2 -5 1 -186 3 -202 1 -5 206 -8 456 -8 250 0 456 3 456
8 7 40 2 195 -6 200 -12 8 -906 9 -909 2z"/>
<path d="M13229 7904 c-30 -36 -8 -84 37 -84 44 0 66 68 30 92 -19 13 -53 9
-67 -8z"/>
<path d="M13448 7899 c-32 -18 -15 -89 21 -89 20 0 44 24 55 54 13 37 -35 60
-76 35z"/>
<path d="M1360 7890 c0 -5 5 -10 10 -10 6 0 10 5 10 10 0 6 -4 10 -10 10 -5 0
-10 -4 -10 -10z"/>
<path d="M1684 7875 c-22 -33 -15 -59 18 -63 43 -5 61 55 24 80 -18 12 -25 9
-42 -17z"/>
<path d="M2094 7835 c-9 -36 21 -67 60 -63 61 6 36 88 -25 88 -22 0 -30 -6
-35 -25z"/>
<path d="M14023 7833 c-17 -6 -17 -43 0 -43 19 0 36 20 30 36 -5 15 -10 16
-30 7z"/>
<path d="M2264 7775 c-21 -33 -6 -72 31 -81 52 -13 86 53 47 89 -27 24 -59 21
-78 -8z"/>
<path d="M14262 7758 c6 -18 28 -21 28 -4 0 9 -7 16 -16 16 -9 0 -14 -5 -12
-12z"/>
<path d="M1892 7734 c-27 -18 -29 -50 -4 -63 51 -27 96 23 56 63 -19 20 -24
20 -52 0z"/>
<path d="M1462 7713 c2 -20 8 -28 23 -28 31 0 28 49 -3 53 -20 3 -23 0 -20
-25z"/>
<path d="M13273 7717 c-30 -13 -37 -40 -21 -74 17 -35 38 -39 71 -13 38 30 37
74 0 88 -18 6 -36 6 -50 -1z"/>
<path d="M2115 7695 c-30 -29 -31 -35 -5 -67 27 -35 57 -41 81 -17 16 16 19
28 13 52 -13 62 -47 75 -89 32z"/>
<path d="M13665 7710 c-9 -15 3 -47 21 -54 21 -8 34 1 34 23 0 32 -40 55 -55
31z"/>
<path d="M13453 7663 c-20 -7 -15 -58 6 -77 19 -17 21 -17 45 8 14 14 26 31
26 39 0 30 -40 45 -77 30z"/>
<path d="M13852 7651 c-19 -11 -11 -55 10 -59 20 -4 40 30 32 52 -7 18 -22 20
-42 7z"/>
<path d="M1717 7626 c-8 -19 20 -56 42 -56 24 0 34 26 21 51 -12 22 -55 26
-63 5z"/>
<path d="M2269 7609 c-24 -24 -24 -61 -1 -82 40 -36 102 -9 102 45 0 48 -65
73 -101 37z"/>
<path d="M1936 7566 c-28 -27 -33 -55 -14 -74 19 -19 55 -14 71 9 17 24 12 51
-13 74 -18 16 -20 16 -44 -9z"/>
<path d="M13250 7510 c-24 -24 -25 -38 -4 -68 20 -29 38 -28 63 4 26 33 27 60
2 74 -28 14 -38 13 -61 -10z"/>
<path d="M13595 7496 c-23 -16 -16 -48 14 -63 30 -14 61 -1 61 26 0 33 -48 57
-75 37z"/>
<path d="M2061 7481 c-36 -36 -6 -85 50 -79 44 4 59 30 39 66 -20 34 -61 41
-89 13z"/>
<path d="M13461 7490 c-18 -11 -10 -40 15 -57 19 -12 24 -12 37 2 9 8 14 22
11 29 -7 19 -48 36 -63 26z"/>
<path d="M1634 7466 c-10 -26 1 -51 22 -54 25 -4 35 15 23 46 -9 25 -37 30
-45 8z"/>
<path d="M14060 7444 c0 -9 5 -14 12 -12 18 6 21 28 4 28 -9 0 -16 -7 -16 -16z"/>
<path d="M2285 7425 c-30 -29 -33 -70 -6 -85 64 -34 118 21 83 83 -20 34 -45
34 -77 2z"/>
<path d="M1869 7401 c-18 -14 -20 -21 -11 -38 15 -27 48 -35 67 -16 18 17 18
19 5 42 -14 28 -36 32 -61 12z"/>
<path d="M13824 7385 c-9 -23 5 -65 21 -65 23 0 46 40 34 62 -12 22 -47 24
-55 3z"/>
<path d="M13230 7329 c-17 -31 -4 -69 23 -69 25 0 64 36 63 58 -2 34 -69 43
-86 11z"/>
<path d="M5058 7327 c-2 -7 -4 -55 -3 -107 l1 -95 507 -3 507 -2 0 109 0 110
-504 0 c-388 0 -505 -2 -508 -12z"/>
<path d="M2093 7293 c-40 -27 -24 -83 23 -83 41 0 63 51 34 80 -24 24 -28 24
-57 3z"/>
<path d="M13379 7271 c-41 -33 -2 -111 40 -79 34 27 46 62 28 76 -25 19 -47
20 -68 3z"/>
<path d="M1700 7263 c-23 -8 -38 -32 -33 -53 10 -39 59 -34 69 7 7 28 -13 53
-36 46z"/>
<path d="M13590 7260 c-16 -10 -9 -51 13 -64 23 -15 52 4 52 34 0 17 -7 26
-26 31 -15 3 -32 3 -39 -1z"/>
<path d="M1305 7249 c-4 -6 -5 -13 -2 -16 7 -7 27 6 27 18 0 12 -17 12 -25 -2z"/>
<path d="M2282 7243 c-34 -30 -37 -59 -8 -88 27 -27 63 -28 92 -4 20 17 17 66
-6 89 -25 25 -51 25 -78 3z"/>
<path d="M13217 7187 c-13 -9 -16 -20 -11 -45 9 -43 49 -55 76 -22 24 29 23
46 -4 64 -27 19 -39 20 -61 3z"/>
<path d="M1553 7164 c-7 -20 17 -37 34 -23 15 13 6 39 -13 39 -8 0 -17 -7 -21
-16z"/>
<path d="M13767 7168 c-7 -23 5 -48 23 -48 20 0 36 33 25 50 -9 14 -43 12 -48
-2z"/>
<path d="M1895 7136 c-16 -12 -17 -16 -6 -30 16 -19 61 -21 61 -3 0 8 -8 21
-18 30 -16 15 -21 15 -37 3z"/>
<path d="M2128 7096 c-51 -25 -21 -101 38 -94 38 4 51 28 35 66 -15 35 -40 45
-73 28z"/>
<path d="M13446 7085 c-17 -17 -12 -40 9 -49 15 -5 45 18 45 34 0 5 -9 14 -19
20 -15 7 -23 6 -35 -5z"/>
<path d="M2303 7071 c-29 -23 -34 -47 -15 -70 24 -30 74 -37 96 -15 18 17 15
56 -5 80 -16 19 -56 22 -76 5z"/>
<path d="M14085 7073 c-7 -19 9 -38 24 -29 16 10 14 33 -3 39 -8 3 -17 -1 -21
-10z"/>
<path d="M1955 6986 c-26 -40 5 -78 46 -56 33 18 19 80 -18 80 -7 0 -19 -11
-28 -24z"/>
<path d="M13180 6980 c-16 -30 -8 -70 16 -87 18 -12 24 -11 47 8 33 25 37 73
8 89 -31 16 -59 12 -71 -10z"/>
<path d="M13786 6954 c-20 -19 -20 -35 -3 -59 17 -22 32 -14 45 25 9 25 8 31
-8 40 -14 7 -23 6 -34 -6z"/>
<path d="M13541 6931 c-12 -22 1 -71 18 -71 19 0 49 41 44 61 -3 10 -9 19 -13
19 -5 0 -15 3 -23 6 -9 3 -20 -3 -26 -15z"/>
<path d="M13337 6899 c-18 -10 -14 -58 6 -71 20 -13 49 -4 64 19 13 20 13 24
-6 39 -24 21 -42 25 -64 13z"/>
<path d="M1820 6890 c-13 -8 -13 -11 2 -27 14 -13 20 -15 30 -5 17 17 -11 45
-32 32z"/>
<path d="M2172 6872 c-27 -4 -48 -48 -32 -67 14 -17 54 -24 74 -13 39 22 4 88
-42 80z"/>
<path d="M2340 6860 c-45 -45 -3 -103 63 -86 32 8 42 37 25 73 -17 36 -59 42
-88 13z"/>
<path d="M13981 6821 c-15 -10 -8 -41 9 -41 15 0 25 29 14 40 -5 5 -15 5 -23
1z"/>
<path d="M13159 6806 c-9 -6 -18 -24 -21 -40 -11 -57 70 -93 93 -42 22 47 -34
110 -72 82z"/>
<path d="M1982 6778 c-7 -7 -12 -17 -12 -24 0 -21 40 -62 58 -59 9 2 21 4 25
4 13 1 4 54 -12 74 -16 20 -42 22 -59 5z"/>
<path d="M13671 6751 c-8 -6 -9 -15 -2 -33 13 -35 26 -41 45 -22 26 26 -12 74
-43 55z"/>
<path d="M13310 6710 c-25 -25 -25 -32 -2 -60 15 -19 21 -20 44 -10 30 14 41
43 24 63 -20 25 -45 28 -66 7z"/>
<path d="M2183 6693 c-23 -9 -15 -61 11 -78 50 -33 92 29 48 68 -19 17 -36 20
-59 10z"/>
<path d="M1761 6671 c-16 -29 -13 -49 8 -60 13 -7 24 -6 37 3 15 12 17 19 9
42 -13 35 -40 42 -54 15z"/>
<path d="M2376 6674 c-20 -19 -21 -58 -2 -73 20 -16 72 -17 91 -1 8 7 15 22
15 35 0 47 -70 73 -104 39z"/>
<path d="M13504 6645 c-8 -33 12 -58 36 -45 24 13 33 39 19 56 -19 23 -48 17
-55 -11z"/>
<path d="M13147 6628 c-35 -19 -17 -78 24 -78 30 0 61 33 52 55 -7 20 -56 35
-76 23z"/>
<path d="M13797 6584 c-15 -15 -7 -45 11 -42 9 2 17 12 17 22 0 20 -16 31 -28
20z"/>
<path d="M2050 6540 c-42 -42 -14 -102 38 -84 33 11 40 45 18 80 -20 29 -30
30 -56 4z"/>
<path d="M2192 6508 c-31 -31 -3 -80 42 -72 34 5 47 26 33 54 -14 28 -55 38
-75 18z"/>
<path d="M2402 6504 c-29 -20 -28 -55 3 -84 21 -20 29 -22 57 -14 29 8 33 15
36 46 2 28 -2 40 -20 52 -28 20 -48 20 -76 0z"/>
<path d="M13298 6492 c-22 -4 -33 -39 -18 -57 30 -37 80 -24 80 20 0 24 -33
44 -62 37z"/>
<path d="M13078 6443 c-21 -5 -25 -67 -5 -80 32 -20 71 -7 80 26 9 36 -32 65
-75 54z"/>
<path d="M13700 6398 c0 -13 6 -18 18 -16 9 2 17 10 17 17 0 8 -8 15 -17 17
-12 1 -18 -4 -18 -18z"/>
<path d="M2047 6384 c-4 -4 -7 -16 -7 -26 0 -14 6 -19 23 -16 14 2 22 10 22
23 0 20 -25 32 -38 19z"/>
<path d="M13507 6349 c-20 -11 -23 -49 -5 -67 20 -20 54 -14 66 12 9 19 7 27
-6 39 -28 23 -37 26 -55 16z"/>
<path d="M2287 6322 c-10 -2 -22 -15 -28 -29 -21 -56 51 -100 85 -52 13 19 13
26 1 49 -16 30 -30 38 -58 32z"/>
<path d="M13223 6307 c-21 -46 26 -77 61 -41 9 8 16 19 16 24 0 15 -31 40 -49
40 -10 0 -23 -10 -28 -23z"/>
<path d="M2446 6299 c-16 -23 -11 -47 13 -65 16 -12 23 -12 59 0 25 8 31 53
10 74 -19 19 -65 14 -82 -9z"/>
<path d="M13018 6218 c-37 -28 -21 -88 22 -88 56 0 74 71 23 91 -30 11 -26 11
-45 -3z"/>
<path d="M1535 6190 c-3 -5 -1 -10 4 -10 6 0 11 5 11 10 0 6 -2 10 -4 10 -3 0
-8 -4 -11 -10z"/>
<path d="M13176 6164 c-10 -27 -7 -54 8 -60 21 -8 56 14 56 34 0 37 -52 58
-64 26z"/>
<path d="M2555 6153 c-31 -8 -45 -23 -45 -49 0 -27 26 -44 68 -44 28 0 62 26
62 48 0 11 -48 53 -59 51 -3 -1 -15 -4 -26 -6z"/>
<path d="M2102 6143 c-21 -8 -34 -51 -21 -74 14 -27 59 -22 70 8 6 17 3 29
-14 47 -12 13 -28 22 -35 19z"/>
<path d="M13437 6133 c-4 -3 -7 -17 -7 -30 0 -29 34 -32 49 -5 15 28 -21 57
-42 35z"/>
<path d="M2312 6092 c-13 -37 1 -62 30 -57 38 8 51 28 37 58 -17 37 -54 36
-67 -1z"/>
<path d="M1754 6086 c-4 -10 -2 -22 4 -28 8 -8 13 -7 18 6 4 10 2 22 -4 28 -8
8 -13 7 -18 -6z"/>
<path d="M12967 6058 c-22 -12 -23 -74 -1 -82 45 -17 79 8 68 51 -7 27 -45 44
-67 31z"/>
<path d="M13174 5990 c-28 -11 -36 -34 -24 -66 9 -22 14 -25 38 -19 30 7 54
32 50 54 -5 23 -41 40 -64 31z"/>
<path d="M2660 5972 c-46 -15 -63 -58 -34 -86 22 -23 47 -20 78 9 22 20 25 28
16 45 -13 24 -40 39 -60 32z"/>
<path d="M13857 5974 c-14 -14 -7 -35 11 -32 9 2 17 10 17 17 0 16 -18 25 -28
15z"/>
<path d="M2180 5935 c-12 -31 -3 -55 20 -55 26 0 43 26 36 55 -9 33 -43 34
-56 0z"/>
<path d="M2438 5933 c-35 -41 -26 -93 17 -93 24 0 55 33 55 57 0 15 -35 53
-48 53 -5 0 -16 -8 -24 -17z"/>
<path d="M13395 5916 c-24 -18 -13 -46 19 -46 35 0 54 35 27 50 -25 13 -23 13
-46 -4z"/>
<path d="M12903 5872 c-19 -12 -22 -65 -5 -84 31 -37 92 -12 92 37 0 38 -55
68 -87 47z"/>
<path d="M2683 5823 c-36 -14 0 -93 42 -93 26 0 55 29 48 48 -15 43 -51 61
-90 45z"/>
<path d="M2026 5795 c-8 -22 4 -46 23 -43 18 4 22 27 8 46 -13 16 -24 15 -31
-3z"/>
<path d="M2466 5774 c-15 -39 9 -84 45 -84 29 0 52 25 45 48 -15 48 -76 72
-90 36z"/>
<path d="M13107 5751 c-11 -45 51 -73 73 -32 8 16 6 23 -12 35 -30 21 -55 20
-61 -3z"/>
<path d="M13494 5755 c-9 -23 3 -45 26 -45 25 0 37 25 20 45 -16 19 -39 19
-46 0z"/>
<path d="M2221 5732 c-7 -13 -6 -23 1 -30 16 -16 24 -15 43 4 12 12 13 19 4
30 -16 19 -36 17 -48 -4z"/>
<path d="M2117 5683 c-13 -13 -7 -32 13 -38 29 -9 42 2 30 26 -11 19 -31 25
-43 12z"/>
<path d="M12842 5681 c-18 -11 -19 -71 -1 -82 24 -15 58 -10 69 10 14 28 13
38 -10 61 -21 21 -37 25 -58 11z"/>
<path d="M2707 5632 c-48 -53 19 -121 76 -78 20 15 23 66 5 84 -18 18 -63 14
-81 -6z"/>
<path d="M13186 5614 c-19 -18 -19 -16 -6 -48 5 -15 17 -26 28 -26 20 0 52 29
52 48 0 15 -29 42 -45 42 -7 0 -21 -7 -29 -16z"/>
<path d="M2284 5602 c-35 -24 -5 -96 36 -85 31 8 35 41 9 69 -24 26 -28 27
-45 16z"/>
<path d="M12981 5578 c-17 -46 20 -66 54 -31 16 16 16 18 -5 35 -29 24 -39 23
-49 -4z"/>
<path d="M2520 5561 c-18 -35 -12 -61 18 -72 35 -14 79 8 74 37 -9 49 -71 73
-92 35z"/>
<path d="M12766 5525 c-26 -27 1 -85 40 -85 15 0 44 27 44 41 0 13 -46 59 -59
59 -5 0 -16 -7 -25 -15z"/>
<path d="M2774 5455 c-20 -30 -12 -71 16 -80 21 -7 76 18 83 37 2 7 -2 25 -10
41 -18 36 -65 38 -89 2z"/>
<path d="M2087 5431 c-6 -26 0 -31 35 -31 25 0 29 4 26 23 -4 30 -53 37 -61 8z"/>
<path d="M2347 5433 c-12 -11 -7 -50 7 -62 19 -16 56 2 56 27 0 32 -43 56 -63
35z"/>
<path d="M12972 5424 c-31 -22 -29 -62 3 -70 31 -8 55 10 55 42 0 33 -31 47
-58 28z"/>
<path d="M13411 5403 c-23 -44 6 -75 46 -50 10 6 10 14 -2 38 -18 33 -30 37
-44 12z"/>
<path d="M2607 5390 c-20 -28 -11 -60 17 -60 50 1 61 39 19 67 -19 13 -23 12
-36 -7z"/>
<path d="M13157 5399 c-23 -13 -22 -46 2 -59 15 -7 25 -5 42 9 23 19 20 34 -9
50 -11 6 -24 6 -35 0z"/>
<path d="M12699 5354 c-13 -35 -3 -63 26 -70 35 -9 65 12 65 44 0 36 -17 52
-52 52 -22 0 -31 -6 -39 -26z"/>
<path d="M2852 5314 c-42 -29 -19 -94 34 -94 14 0 36 11 50 25 20 20 23 29 14
45 -21 39 -62 50 -98 24z"/>
<path d="M2047 5314 c-10 -11 3 -24 23 -24 13 0 17 5 14 15 -6 15 -26 20 -37
9z"/>
<path d="M2519 5253 c-27 -7 -40 -47 -23 -71 15 -23 35 -21 67 6 21 19 22 36
1 56 -16 16 -18 17 -45 9z"/>
<path d="M2654 5226 c-9 -38 -1 -61 24 -64 47 -7 69 40 34 71 -26 24 -51 21
-58 -7z"/>
<path d="M12816 5234 c-30 -29 -15 -94 21 -94 18 0 53 36 53 55 0 14 -38 55
-51 55 -4 0 -15 -7 -23 -16z"/>
<path d="M2307 5233 c-2 -5 -2 -14 -1 -20 1 -7 2 -17 3 -23 1 -13 38 -13 46 1
4 5 -1 19 -11 30 -18 20 -30 24 -37 12z"/>
<path d="M12601 5217 c-6 -8 -14 -28 -17 -44 -5 -25 -1 -34 17 -47 42 -29 75
-15 84 36 9 47 -56 88 -84 55z"/>
<path d="M13220 5181 c-21 -41 -7 -68 30 -56 24 8 35 42 20 60 -17 21 -37 19
-50 -4z"/>
<path d="M13072 5168 c-18 -18 -14 -38 8 -38 13 0 20 7 20 19 0 25 -13 34 -28
19z"/>
<path d="M2963 5158 c-49 -24 -29 -98 27 -98 21 0 35 8 46 26 16 24 16 27 -3
52 -23 31 -39 35 -70 20z"/>
<path d="M2753 5105 c-37 -26 -7 -84 44 -85 21 0 43 25 43 49 0 13 -40 51 -55
51 -6 0 -20 -7 -32 -15z"/>
<path d="M13610 5089 c0 -24 23 -21 28 4 2 10 -3 17 -12 17 -10 0 -16 -9 -16
-21z"/>
<path d="M12538 5059 c-36 -20 -13 -99 28 -99 55 0 72 55 28 89 -30 24 -32 24
-56 10z"/>
<path d="M2166 5052 c-6 -11 12 -52 23 -52 15 0 22 16 15 33 -6 17 -31 30 -38
19z"/>
<path d="M2592 5038 c-18 -18 -14 -55 5 -63 19 -7 57 30 47 46 -11 19 -41 28
-52 17z"/>
<path d="M12758 5039 c-23 -13 -23 -56 0 -68 49 -26 94 27 52 61 -25 21 -29
21 -52 7z"/>
<path d="M12934 5026 c-8 -22 14 -56 37 -56 25 0 34 22 19 49 -12 24 -48 28
-56 7z"/>
<path d="M3045 5001 c-13 -27 -13 -31 3 -52 17 -20 21 -21 48 -8 37 18 43 52
12 73 -32 23 -45 20 -63 -13z"/>
<path d="M2858 4953 c-23 -6 -33 -40 -17 -59 19 -23 83 -15 87 12 5 32 -30 56
-70 47z"/>
<path d="M1985 4930 c-3 -6 1 -13 10 -16 19 -8 30 0 20 15 -8 14 -22 14 -30 1z"/>
<path d="M12637 4917 c-19 -14 -30 -58 -20 -73 28 -41 102 -10 90 38 -8 31
-49 52 -70 35z"/>
<path d="M3168 4903 c-20 -5 -47 -59 -41 -83 3 -10 14 -20 25 -23 26 -7 76 11
88 33 16 30 -34 81 -72 73z"/>
<path d="M2496 4884 c-7 -19 10 -44 29 -44 18 0 27 30 14 46 -15 19 -35 18
-43 -2z"/>
<path d="M12420 4865 c-29 -35 -16 -71 28 -80 23 -4 62 20 62 39 0 33 -70 66
-90 41z"/>
<path d="M2671 4846 c-26 -31 31 -79 74 -62 22 8 18 43 -7 60 -28 20 -52 20
-67 2z"/>
<path d="M12854 4843 c-7 -17 -8 -30 -5 -53 0 -5 10 -14 21 -20 47 -25 82 37
42 73 -24 22 -48 22 -58 0z"/>
<path d="M13137 4844 c-9 -10 2 -24 19 -24 8 0 14 7 14 15 0 15 -21 21 -33 9z"/>
<path d="M2192 4801 c4 -13 18 -16 19 -4 0 4 -5 9 -11 12 -7 2 -11 -2 -8 -8z"/>
<path d="M2910 4769 c-16 -29 -2 -78 25 -91 30 -13 63 4 71 38 13 53 -71 100
-96 53z"/>
<path d="M3243 4768 c-47 -23 -29 -108 25 -116 52 -8 84 81 40 112 -26 18 -35
19 -65 4z"/>
<path d="M2436 4761 c-10 -16 5 -42 23 -39 21 4 21 42 -1 46 -9 2 -19 -1 -22
-7z"/>
<path d="M12522 4744 c-45 -31 -16 -97 35 -78 40 14 50 37 30 68 -20 30 -34
32 -65 10z"/>
<path d="M12327 4709 c-23 -13 -23 -64 1 -75 24 -10 45 -6 59 13 24 31 -25 81
-60 62z"/>
<path d="M12760 4701 c-22 -42 -7 -67 34 -57 29 7 39 41 19 61 -20 20 -40 19
-53 -4z"/>
<path d="M13237 4656 c-17 -13 -23 -41 -9 -49 13 -8 52 12 52 26 0 25 -23 37
-43 23z"/>
<path d="M2735 4636 c-16 -24 -11 -55 9 -57 6 -1 21 -3 34 -4 14 -1 29 6 37
18 13 19 13 23 -7 44 -28 29 -53 29 -73 -1z"/>
<path d="M3036 4628 c-20 -28 -20 -52 0 -68 22 -19 85 -1 95 26 19 53 -62 89
-95 42z"/>
<path d="M12974 4626 c-8 -22 3 -49 19 -43 6 2 12 14 12 27 0 27 -22 39 -31
16z"/>
<path d="M2567 4609 c-7 -28 9 -69 27 -69 49 0 60 33 23 68 -29 28 -43 28 -50
1z"/>
<path d="M3350 4578 c-25 -27 -25 -49 -2 -78 21 -26 66 -30 87 -9 26 27 28 66
6 88 -27 27 -65 27 -91 -1z"/>
<path d="M12635 4550 c-15 -16 -17 -26 -9 -48 12 -35 47 -41 68 -10 23 33 20
57 -10 68 -32 13 -28 13 -49 -10z"/>
<path d="M12433 4528 c-35 -45 -10 -88 40 -69 29 11 37 29 26 59 -9 25 -50 31
-66 10z"/>
<path d="M12197 4512 c-23 -25 -21 -55 3 -77 16 -15 26 -17 48 -9 37 13 43 65
10 88 -29 21 -41 20 -61 -2z"/>
<path d="M2927 4492 c-40 -44 -1 -90 48 -58 30 20 32 51 6 66 -27 14 -35 13
-54 -8z"/>
<path d="M13087 4493 c-12 -11 -7 -43 6 -43 17 0 37 20 37 37 0 13 -32 18 -43
6z"/>
<path d="M3124 4472 c-6 -4 -16 -17 -23 -30 -10 -19 -10 -28 3 -47 8 -13 21
-22 28 -21 39 7 59 20 64 42 11 42 -38 79 -72 56z"/>
<path d="M12839 4429 c-9 -17 -8 -25 5 -37 15 -15 17 -15 32 0 13 12 14 20 5
37 -7 11 -16 21 -21 21 -5 0 -14 -10 -21 -21z"/>
<path d="M3432 4402 c-7 -5 -15 -25 -19 -44 -4 -31 -2 -38 20 -53 31 -20 59
-9 81 34 14 26 14 30 -8 50 -23 22 -52 27 -74 13z"/>
<path d="M2695 4391 c-3 -5 -1 -12 5 -16 5 -3 10 1 10 9 0 18 -6 21 -15 7z"/>
<path d="M12090 4381 c-25 -48 0 -84 49 -72 37 10 48 34 28 65 -21 31 -62 35
-77 7z"/>
<path d="M2365 4350 c-4 -6 -3 -16 3 -22 6 -6 12 -6 17 2 4 6 3 16 -3 22 -6 6
-12 6 -17 -2z"/>
<path d="M3013 4352 c-18 -11 -26 -58 -13 -81 11 -21 45 -28 66 -13 15 10 24
40 17 57 -7 20 -56 45 -70 37z"/>
<path d="M12330 4326 c0 -25 30 -43 50 -31 16 10 12 42 -6 49 -31 12 -44 6
-44 -18z"/>
<path d="M3246 4304 c-17 -45 7 -81 48 -70 51 13 40 86 -13 86 -17 0 -31 -6
-35 -16z"/>
<path d="M2800 4285 c-18 -21 -4 -47 22 -43 29 4 35 34 10 47 -15 8 -23 7 -32
-4z"/>
<path d="M2545 4280 c-4 -6 -4 -22 -1 -36 7 -28 43 -33 53 -8 12 32 -35 71
-52 44z"/>
<path d="M3586 4268 c-37 -52 -6 -109 46 -89 47 18 64 60 37 90 -26 27 -64 27
-83 -1z"/>
<path d="M12187 4268 c-23 -12 -22 -55 2 -68 44 -23 79 -2 66 40 -8 24 -47 40
-68 28z"/>
<path d="M12666 4251 c-19 -21 -21 -38 -3 -44 21 -7 37 4 37 28 0 32 -14 38
-34 16z"/>
<path d="M11962 4248 c-18 -18 -15 -63 6 -80 46 -39 84 17 46 70 -17 25 -34
28 -52 10z"/>
<path d="M12961 4201 c-12 -22 -1 -34 23 -25 20 8 20 18 2 33 -12 10 -17 8
-25 -8z"/>
<path d="M3401 4193 c-23 -16 -28 -62 -9 -81 21 -21 66 -14 83 12 15 23 15 27
0 49 -20 31 -48 39 -74 20z"/>
<path d="M12473 4194 c-6 -17 14 -36 32 -31 6 2 11 13 13 25 3 17 -2 22 -18
22 -11 0 -23 -7 -27 -16z"/>
<path d="M3159 4193 c-22 -5 -30 -48 -12 -72 24 -35 92 -4 79 36 -7 22 -43 41
-67 36z"/>
<path d="M3702 4153 c-44 -38 -23 -118 29 -108 33 7 59 35 59 65 0 47 -53 72
-88 43z"/>
<path d="M2910 4130 c0 -34 26 -54 53 -39 35 20 14 69 -30 69 -19 0 -23 -5
-23 -30z"/>
<path d="M11852 4127 c-6 -6 -13 -24 -17 -39 -6 -23 -3 -29 19 -39 20 -10 30
-9 51 5 31 20 32 39 3 66 -25 23 -41 25 -56 7z"/>
<path d="M12048 4104 c-21 -46 29 -87 71 -58 26 19 27 45 3 67 -28 25 -60 21
-74 -9z"/>
<path d="M2772 4068 c-32 -32 8 -69 51 -47 18 10 18 11 -4 35 -26 27 -30 29
-47 12z"/>
<path d="M12321 4031 c-25 -25 -27 -44 -5 -62 13 -11 20 -11 42 2 33 18 35 46
5 66 -19 13 -24 12 -42 -6z"/>
<path d="M3543 4028 c-25 -12 -36 -44 -22 -70 12 -22 37 -23 67 -2 44 30 4 94
-45 72z"/>
<path d="M12761 4031 c-11 -7 -9 -11 8 -20 18 -10 21 -9 21 9 0 22 -7 25 -29
11z"/>
<path d="M3053 4008 c-24 -31 -23 -49 2 -58 27 -10 75 2 75 20 0 15 -38 50
-54 50 -7 0 -18 -6 -23 -12z"/>
<path d="M3271 4006 c-18 -21 -10 -46 19 -67 49 -37 97 3 62 51 -22 29 -63 38
-81 16z"/>
<path d="M3839 3999 c-21 -21 -25 -72 -6 -86 6 -6 20 -13 30 -16 25 -9 68 34
62 63 -10 49 -55 70 -86 39z"/>
<path d="M11717 3993 c-18 -38 -11 -60 23 -71 23 -9 31 -7 46 9 16 18 16 22 1
54 -21 43 -51 46 -70 8z"/>
<path d="M2342 3988 c3 -7 15 -14 29 -16 23 -2 23 -2 5 13 -24 18 -39 20 -34
3z"/>
<path d="M12477 3972 c-21 -23 -22 -38 -3 -45 20 -8 49 16 45 38 -5 26 -23 29
-42 7z"/>
<path d="M11943 3968 c-31 -39 -17 -78 28 -78 37 0 48 23 28 59 -17 30 -41 38
-56 19z"/>
<path d="M3616 3909 c-32 -47 32 -102 74 -64 25 23 26 47 2 68 -25 23 -58 21
-76 -4z"/>
<path d="M12120 3871 c-25 -48 -3 -79 44 -61 33 12 39 37 16 60 -25 25 -46 25
-60 1z"/>
<path d="M2594 3866 c-7 -19 3 -36 22 -36 10 0 14 8 12 22 -4 26 -26 36 -34
14z"/>
<path d="M3960 3860 c-24 -24 -26 -53 -4 -74 23 -23 52 -19 79 10 29 32 30 33
9 62 -19 28 -57 29 -84 2z"/>
<path d="M11586 3821 c-34 -37 -2 -96 45 -84 27 7 34 28 21 58 -17 37 -46 48
-66 26z"/>
<path d="M3426 3811 c-22 -25 -6 -68 29 -77 59 -15 76 59 19 82 -28 12 -34 11
-48 -5z"/>
<path d="M11861 3806 c-17 -31 -6 -63 24 -70 51 -13 79 26 51 69 -21 32 -59
33 -75 1z"/>
<path d="M3172 3808 c-32 -32 2 -79 43 -60 25 12 30 27 19 56 -7 19 -45 21
-62 4z"/>
<path d="M12401 3796 c-16 -19 -6 -36 20 -36 15 0 20 6 17 22 -4 27 -21 33
-37 14z"/>
<path d="M12049 3793 c-9 -2 -22 -16 -28 -30 -25 -54 51 -85 79 -32 18 33 -12
70 -51 62z"/>
<path d="M2925 3773 c-8 -21 29 -55 50 -46 21 8 18 40 -4 53 -28 14 -38 13
-46 -7z"/>
<path d="M3800 3767 c-37 -18 -40 -73 -6 -88 20 -10 30 -9 51 5 52 34 10 110
-45 83z"/>
<path d="M4080 3723 c-53 -21 -41 -103 15 -103 50 0 73 66 33 94 -24 17 -25
17 -48 9z"/>
<path d="M11451 3702 c-25 -46 31 -95 67 -58 12 12 14 22 6 43 -12 35 -57 44
-73 15z"/>
<path d="M3574 3682 c-21 -13 -25 -49 -9 -66 20 -20 29 -20 45 -1 33 40 5 94
-36 67z"/>
<path d="M11701 3646 c-36 -38 -22 -86 26 -86 45 0 56 72 15 97 -17 10 -23 8
-41 -11z"/>
<path d="M4216 3644 c-22 -21 -20 -67 2 -87 50 -45 120 5 99 69 -12 34 -74 45
-101 18z"/>
<path d="M3302 3628 c-11 -14 1 -58 16 -58 5 0 17 8 26 19 16 17 16 20 1 35
-20 19 -29 20 -43 4z"/>
<path d="M12220 3609 c-10 -17 -9 -23 1 -30 29 -18 63 -2 57 27 -5 28 -44 30
-58 3z"/>
<path d="M3888 3613 c-24 -6 -32 -51 -14 -79 25 -38 86 -12 86 37 0 27 -38 49
-72 42z"/>
<path d="M11338 3608 c-35 -29 -30 -62 13 -73 18 -4 30 -1 43 14 18 19 18 22
2 46 -18 28 -34 31 -58 13z"/>
<path d="M12432 3608 c-18 -18 -15 -41 4 -34 9 3 18 6 20 6 2 0 4 9 4 20 0 23
-10 26 -28 8z"/>
<path d="M12654 3566 c-8 -22 3 -33 18 -18 9 9 9 15 0 24 -9 9 -13 7 -18 -6z"/>
<path d="M3674 3555 c-4 -8 -1 -22 6 -30 15 -18 50 1 50 27 0 23 -48 25 -56 3z"/>
<path d="M11514 3545 c-24 -37 -10 -65 31 -65 50 0 65 31 31 65 -31 31 -41 31
-62 0z"/>
<path d="M11924 3547 c-7 -20 3 -37 22 -37 18 0 18 24 -1 40 -12 10 -16 9 -21
-3z"/>
<path d="M4365 3524 c-26 -26 -16 -77 18 -88 22 -8 32 -6 55 11 35 26 38 46
11 72 -27 25 -62 27 -84 5z"/>
<path d="M3162 3508 c-17 -17 -15 -48 2 -48 44 0 61 31 28 49 -13 7 -23 6 -30
-1z"/>
<path d="M3482 3508 c-16 -16 -15 -43 3 -58 21 -18 45 -5 45 24 0 30 -31 51
-48 34z"/>
<path d="M4041 3474 c-51 -36 5 -133 60 -104 46 25 40 91 -11 109 -21 7 -33 6
-49 -5z"/>
<path d="M12063 3475 c-3 -9 -3 -18 -1 -21 9 -9 38 8 38 22 0 19 -29 18 -37
-1z"/>
<path d="M11156 3461 c-24 -26 -17 -62 16 -80 24 -14 28 -14 47 3 25 23 26 44
5 74 -19 27 -45 28 -68 3z"/>
<path d="M11761 3444 c-26 -19 -26 -61 2 -78 41 -26 76 43 39 77 -17 15 -20
15 -41 1z"/>
<path d="M12263 3415 c-3 -9 -3 -18 0 -22 10 -10 37 6 37 22 0 20 -29 20 -37
0z"/>
<path d="M3814 3412 c-39 -25 -10 -99 32 -82 30 12 40 58 17 76 -20 15 -33 17
-49 6z"/>
<path d="M4538 3388 c-26 -20 -27 -68 -2 -92 42 -42 111 -2 105 61 -4 37 -70
57 -103 31z"/>
<path d="M11416 3374 c-23 -23 -19 -43 10 -55 20 -7 32 -6 50 6 27 18 28 19
14 46 -13 23 -53 25 -74 3z"/>
<path d="M11615 3364 c-38 -38 6 -83 50 -51 18 14 18 16 2 41 -20 30 -30 32
-52 10z"/>
<path d="M11890 3360 c-25 -25 -25 -37 -2 -48 39 -21 85 23 56 53 -20 20 -30
19 -54 -5z"/>
<path d="M10996 3351 c-25 -27 -17 -63 16 -72 55 -14 99 38 63 75 -22 22 -58
20 -79 -3z"/>
<path d="M4220 3340 c-23 -23 -16 -55 16 -76 28 -19 61 -11 69 17 10 30 -2 54
-36 66 -26 10 -33 9 -49 -7z"/>
<path d="M12194 3329 c-10 -17 13 -36 27 -22 12 12 4 33 -11 33 -5 0 -12 -5
-16 -11z"/>
<path d="M3282 3278 c-19 -19 -14 -35 14 -42 34 -9 53 8 38 32 -14 22 -36 26
-52 10z"/>
<path d="M4676 3271 c-25 -28 -21 -79 8 -92 57 -26 113 28 81 77 -8 13 -19 24
-23 25 -4 0 -17 2 -28 4 -12 3 -28 -3 -38 -14z"/>
<path d="M11262 3278 c-31 -31 3 -87 42 -72 25 10 24 52 -2 72 -20 15 -25 15
-40 0z"/>
<path d="M3617 3274 c-10 -11 -9 -42 3 -49 20 -12 51 6 48 28 -3 22 -36 35
-51 21z"/>
<path d="M3950 3272 c-32 -11 -39 -42 -14 -66 12 -13 20 -14 37 -4 30 15 37
29 27 49 -11 20 -30 28 -50 21z"/>
<path d="M4383 3258 c-30 -14 -31 -61 -2 -82 25 -17 76 -4 82 22 4 19 -12 62
-24 62 -4 0 -13 2 -21 4 -7 3 -23 0 -35 -6z"/>
<path d="M10853 3228 c-24 -27 -22 -54 4 -74 37 -28 73 -10 73 36 0 26 -26 60
-47 60 -5 0 -19 -10 -30 -22z"/>
<path d="M11855 3217 c-18 -28 -11 -56 13 -52 9 2 21 4 25 4 13 1 4 64 -10 68
-6 2 -19 -7 -28 -20z"/>
<path d="M11457 3218 c-40 -22 -38 -88 2 -88 24 0 51 31 51 58 0 27 -29 44
-53 30z"/>
<path d="M3814 3196 c-12 -32 0 -61 28 -64 39 -5 56 30 28 58 -23 23 -48 26
-56 6z"/>
<path d="M4534 3170 c-42 -16 -53 -57 -23 -88 25 -28 53 -28 79 0 23 25 24 32
10 58 -15 27 -41 39 -66 30z"/>
<path d="M4849 3156 c-31 -16 -43 -39 -35 -69 12 -51 86 -44 106 9 19 48 -24
84 -71 60z"/>
<path d="M11111 3144 c-27 -34 -26 -40 3 -59 31 -21 71 -6 80 30 14 55 -46 76
-83 29z"/>
<path d="M4136 3134 c-9 -8 -16 -22 -16 -29 0 -7 7 -21 16 -29 30 -30 74 -13
74 29 0 42 -44 59 -74 29z"/>
<path d="M10730 3137 c-31 -16 -39 -56 -14 -74 20 -15 53 -17 73 -4 20 13 17
60 -5 76 -23 18 -23 18 -54 2z"/>
<path d="M11631 3100 c-18 -11 -9 -44 13 -48 23 -5 38 10 31 31 -8 19 -28 28
-44 17z"/>
<path d="M3972 3077 c-25 -30 6 -74 40 -56 24 13 23 46 -1 59 -25 13 -26 13
-39 -3z"/>
<path d="M10932 3064 c-24 -17 -29 -56 -9 -72 16 -13 53 2 66 27 14 25 14 27
-5 45 -19 20 -24 20 -52 0z"/>
<path d="M4282 3052 c-17 -11 -22 -43 -9 -59 25 -32 92 11 71 45 -13 19 -43
26 -62 14z"/>
<path d="M4993 3050 c-45 -18 -22 -110 26 -110 38 0 72 75 45 100 -16 14 -49
19 -71 10z"/>
<path d="M10546 3031 c-22 -24 -13 -57 17 -65 36 -10 43 -7 55 19 10 21 9 28
-8 45 -25 25 -42 25 -64 1z"/>
<path d="M4729 3033 c-26 -6 -31 -45 -10 -67 37 -36 94 19 61 59 -12 15 -21
16 -51 8z"/>
<path d="M11276 3027 c-25 -18 -18 -61 10 -65 21 -3 54 21 54 38 0 10 -29 40
-39 40 -4 0 -15 -6 -25 -13z"/>
<path d="M5143 2958 c-44 -47 -21 -97 45 -98 86 -1 97 102 12 116 -28 5 -39 1
-57 -18z"/>
<path d="M3756 2963 c-19 -20 14 -66 40 -56 21 8 13 44 -13 54 -11 4 -24 5
-27 2z"/>
<path d="M10346 2954 c-21 -21 -20 -57 2 -77 27 -24 58 -21 81 9 17 21 19 30
9 48 -6 11 -16 24 -22 28 -19 13 -54 9 -70 -8z"/>
<path d="M11074 2952 c-38 -26 -11 -68 34 -51 27 10 28 21 4 42 -21 19 -23 20
-38 9z"/>
<path d="M10761 2924 c-26 -33 -26 -39 0 -58 43 -30 93 20 63 63 -20 28 -38
27 -63 -5z"/>
<path d="M4503 2918 c-10 -15 -10 -23 1 -55 9 -28 46 -31 69 -5 23 26 24 28 3
51 -21 23 -59 28 -73 9z"/>
<path d="M11470 2906 c0 -21 5 -26 26 -26 21 0 25 4 22 23 -2 14 -11 23 -25
25 -19 3 -23 -1 -23 -22z"/>
<path d="M4855 2877 c-12 -19 -13 -30 -4 -55 12 -35 32 -46 59 -32 45 24 53
81 15 98 -38 17 -53 15 -70 -11z"/>
<path d="M5298 2876 c-10 -7 -18 -23 -18 -35 0 -24 33 -61 55 -61 36 0 74 77
47 94 -21 13 -69 14 -84 2z"/>
<path d="M10212 2874 c-30 -21 -29 -59 4 -81 35 -22 60 -7 57 36 -1 30 -18 61
-32 61 -4 0 -17 -7 -29 -16z"/>
<path d="M11604 2865 c-19 -29 -12 -45 19 -40 31 6 50 34 36 52 -17 20 -37 16
-55 -12z"/>
<path d="M10607 2852 c-25 -28 -21 -60 9 -74 45 -21 73 11 51 57 -19 38 -37
43 -60 17z"/>
<path d="M5027 2847 c-39 -32 -18 -87 34 -87 21 0 32 7 41 24 14 33 6 51 -30
64 -22 8 -34 7 -45 -1z"/>
<path d="M10921 2841 c-25 -25 -25 -31 -8 -56 10 -13 21 -16 40 -11 33 8 37
44 8 70 -18 17 -20 17 -40 -3z"/>
<path d="M5490 2817 c-37 -19 -35 -65 5 -89 25 -14 34 -15 54 -5 34 17 44 51
23 76 -23 26 -52 33 -82 18z"/>
<path d="M4696 2804 c-20 -19 -20 -25 -2 -50 16 -21 40 -13 60 20 9 13 7 20
-8 32 -25 18 -31 18 -50 -2z"/>
<path d="M4270 2770 c0 -37 39 -62 65 -40 30 25 5 70 -41 70 -20 0 -24 -5 -24
-30z"/>
<path d="M10048 2789 c-23 -13 -23 -51 0 -72 49 -45 114 4 78 58 -17 26 -48
32 -78 14z"/>
<path d="M5203 2779 c-12 -4 -27 -17 -32 -28 -9 -16 -7 -25 12 -47 42 -48 111
-29 105 29 -4 36 -48 60 -85 46z"/>
<path d="M11303 2771 c-9 -15 -9 -23 3 -40 29 -41 73 -15 51 29 -16 31 -39 36
-54 11z"/>
<path d="M10399 2749 c-18 -18 -19 -23 -6 -42 28 -42 87 -29 87 19 0 22 -25
44 -49 44 -6 0 -20 -9 -32 -21z"/>
<path d="M3750 2750 c0 -5 7 -10 15 -10 8 0 15 5 15 10 0 6 -7 10 -15 10 -8 0
-15 -4 -15 -10z"/>
<path d="M4091 2731 c-12 -8 -12 -12 -2 -25 20 -24 43 -20 39 6 -3 25 -17 32
-37 19z"/>
<path d="M9891 2717 c-37 -18 -47 -41 -33 -71 14 -32 53 -35 83 -5 20 20 19
48 -3 77 -13 15 -17 15 -47 -1z"/>
<path d="M4866 2705 c-8 -22 11 -65 29 -65 8 0 18 -1 23 -1 15 -3 31 44 21 63
-12 22 -64 24 -73 3z"/>
<path d="M4431 2697 c-15 -19 10 -53 33 -44 23 9 32 37 15 48 -20 12 -35 11
-48 -4z"/>
<path d="M5632 2690 c-26 -42 -8 -80 38 -80 31 0 44 8 59 38 11 20 10 27 -5
43 -23 26 -75 25 -92 -1z"/>
<path d="M11529 2694 c-6 -8 -9 -17 -6 -20 8 -8 47 5 47 16 0 15 -29 19 -41 4z"/>
<path d="M10761 2676 c-16 -30 -7 -46 25 -46 16 0 27 8 33 23 17 45 -35 66
-58 23z"/>
<path d="M5359 2683 c-48 -11 -5 -103 47 -103 31 0 61 57 40 78 -15 15 -65 29
-87 25z"/>
<path d="M11107 2672 c-15 -16 -15 -21 -3 -37 12 -17 16 -17 30 -5 18 14 18
51 0 57 -6 2 -18 -5 -27 -15z"/>
<path d="M9737 2663 c-9 -2 -24 -18 -32 -33 -14 -28 -14 -30 9 -45 52 -34 104
2 76 52 -16 29 -25 33 -53 26z"/>
<path d="M10250 2650 c-27 -27 -23 -50 12 -70 38 -21 64 -4 61 40 -1 36 -1 35
-30 44 -15 5 -28 1 -43 -14z"/>
<path d="M5832 2640 c-28 -26 -28 -64 -1 -91 34 -34 89 -4 89 49 0 59 -46 81
-88 42z"/>
<path d="M10561 2637 c-6 -6 -11 -19 -11 -29 0 -13 8 -18 31 -18 27 0 30 3 27
27 -3 28 -28 39 -47 20z"/>
<path d="M10986 2624 c-32 -31 -14 -61 30 -50 26 7 32 34 12 54 -16 16 -23 15
-42 -4z"/>
<path d="M5070 2610 c-9 -17 -8 -26 5 -46 20 -31 50 -31 70 0 16 24 11 56 -9
56 -6 0 -21 3 -33 6 -15 4 -24 0 -33 -16z"/>
<path d="M6018 2598 c-24 -20 -27 -41 -12 -76 10 -26 19 -32 42 -32 34 0 50
15 58 57 5 25 1 34 -17 47 -28 19 -50 20 -71 4z"/>
<path d="M4548 2583 c-26 -6 -34 -44 -12 -60 15 -11 21 -11 38 1 12 7 22 20
24 29 4 18 -25 35 -50 30z"/>
<path d="M9532 2578 c-46 -23 -37 -91 14 -101 20 -3 34 2 50 18 21 21 22 27
13 54 -6 17 -15 31 -19 31 -5 0 -14 2 -22 4 -7 3 -23 0 -36 -6z"/>
<path d="M10077 2572 c-10 -10 -17 -26 -17 -35 0 -16 25 -35 45 -35 47 0 63
62 19 78 -32 12 -28 13 -47 -8z"/>
<path d="M11395 2580 c-8 -13 4 -32 16 -25 12 8 12 35 0 35 -6 0 -13 -4 -16
-10z"/>
<path d="M6212 2569 c-19 -7 -23 -15 -20 -40 4 -43 47 -76 77 -60 30 16 29 74
-1 95 -25 18 -25 18 -56 5z"/>
<path d="M5526 2549 c-29 -23 -34 -50 -12 -69 24 -19 59 -7 78 26 17 29 17 33
3 48 -22 21 -37 20 -69 -5z"/>
<path d="M11146 2541 c-22 -24 -14 -41 17 -33 28 7 39 23 25 39 -14 18 -22 16
-42 -6z"/>
<path d="M10456 2531 c-23 -25 -14 -51 16 -51 34 0 50 14 46 41 -4 31 -38 36
-62 10z"/>
<path d="M9327 2522 c-35 -38 -8 -85 44 -80 26 2 36 9 43 30 18 53 -50 91 -87
50z"/>
<path d="M4840 2505 c-10 -12 -11 -21 -3 -33 13 -22 56 -27 72 -9 13 17 5 47
-14 47 -7 0 -20 2 -28 5 -7 3 -20 -1 -27 -10z"/>
<path d="M6364 2499 c-33 -37 -10 -98 38 -99 23 0 57 46 51 70 -11 40 -63 58
-89 29z"/>
<path d="M5713 2497 c-19 -30 12 -76 50 -77 26 0 45 46 26 65 -19 19 -67 26
-76 12z"/>
<path d="M9917 2485 c-23 -17 -22 -62 2 -70 27 -8 50 4 57 32 10 40 -26 63
-59 38z"/>
<path d="M9170 2470 c-14 -14 -17 -25 -11 -42 12 -32 37 -46 59 -32 24 15 27
40 8 69 -20 30 -30 31 -56 5z"/>
<path d="M6590 2472 c-49 -16 -66 -74 -32 -105 24 -22 45 -21 65 1 34 38 8
118 -33 104z"/>
<path d="M5361 2454 c-36 -25 -22 -84 19 -84 25 0 52 35 48 61 -4 30 -40 42
-67 23z"/>
<path d="M10682 2458 c-18 -18 -15 -28 7 -28 26 0 34 15 18 29 -10 8 -17 7
-25 -1z"/>
<path d="M10237 2453 c-16 -15 -6 -33 18 -33 18 0 25 5 25 20 0 20 -28 28 -43
13z"/>
<path d="M9033 2439 c-23 -8 -37 -38 -28 -61 17 -45 105 -41 105 5 0 44 -37
71 -77 56z"/>
<path d="M5163 2433 c-20 -7 -15 -31 8 -43 24 -13 24 -13 33 16 7 22 -14 36
-41 27z"/>
<path d="M9706 2421 c-22 -24 -14 -57 16 -67 16 -5 27 0 39 15 37 45 -16 95
-55 52z"/>
<path d="M6046 2388 c-12 -16 -13 -26 -4 -42 29 -55 91 -47 103 13 9 48 -70
71 -99 29z"/>
<path d="M9550 2397 c-30 -15 -36 -44 -16 -72 12 -16 18 -17 39 -8 31 15 40
47 19 73 -15 17 -20 18 -42 7z"/>
<path d="M5913 2393 c-20 -7 -15 -51 7 -73 16 -16 25 -18 39 -11 57 31 13 109
-46 84z"/>
<path d="M6733 2378 c-39 -44 32 -127 74 -86 18 19 20 75 3 92 -17 17 -59 14
-77 -6z"/>
<path d="M8830 2380 c-26 -26 -25 -44 2 -70 40 -37 78 -20 78 35 0 55 -42 73
-80 35z"/>
<path d="M4972 2359 c4 -31 32 -46 52 -30 22 19 3 51 -30 51 -20 0 -25 -4 -22
-21z"/>
<path d="M9325 2356 c-20 -20 -23 -30 -16 -48 12 -34 55 -46 81 -23 25 23 26
49 0 75 -26 26 -36 25 -65 -4z"/>
<path d="M6928 2359 c-22 -13 -24 -62 -2 -83 36 -36 102 2 89 52 -10 41 -48
54 -87 31z"/>
<path d="M8652 2355 c-25 -11 -32 -20 -32 -43 0 -35 16 -52 52 -52 30 0 48 23
48 64 0 35 -27 48 -68 31z"/>
<path d="M5543 2343 c-18 -6 -16 -59 3 -77 17 -17 33 -20 50 -8 43 29 -3 102
-53 85z"/>
<path d="M6297 2338 c-28 -21 -29 -56 -2 -74 21 -13 28 -14 52 -2 34 16 43 56
17 75 -22 16 -45 17 -67 1z"/>
<path d="M8453 2330 c-32 -13 -39 -47 -16 -79 28 -37 58 -39 76 -4 13 24 13
33 2 61 -15 33 -25 37 -62 22z"/>
<path d="M7097 2310 c-29 -42 5 -96 55 -88 29 4 45 52 27 84 -16 31 -62 33
-82 4z"/>
<path d="M7302 2322 c-32 -5 -55 -43 -43 -74 21 -57 69 -60 97 -6 28 54 4 89
-54 80z"/>
<path d="M10038 2319 c-25 -14 -23 -55 3 -62 45 -12 66 24 33 57 -8 9 -16 16
-17 16 -1 0 -10 -5 -19 -11z"/>
<path d="M10322 2318 c-19 -19 -14 -37 14 -44 33 -8 53 10 38 34 -14 22 -36
26 -52 10z"/>
<path d="M7501 2304 c-28 -20 -27 -59 3 -89 28 -28 60 -24 82 10 35 53 -33
115 -85 79z"/>
<path d="M7693 2295 c-38 -26 -35 -83 6 -104 47 -26 90 73 46 105 -23 17 -26
17 -52 -1z"/>
<path d="M8231 2293 c-29 -20 -24 -53 11 -73 32 -17 56 -8 69 27 16 43 -39 75
-80 46z"/>
<path d="M10810 2295 c-12 -14 -11 -18 1 -26 20 -12 34 -6 34 16 0 24 -19 30
-35 10z"/>
<path d="M8067 2292 c-25 -5 -46 -52 -36 -79 10 -27 50 -31 69 -8 31 38 9 97
-33 87z"/>
<path d="M7855 2270 c-28 -31 -10 -74 31 -78 46 -4 78 49 51 86 -15 19 -62 14
-82 -8z"/>
<path d="M6436 2264 c-15 -14 -15 -19 -3 -37 31 -47 78 -47 85 0 6 37 -55 64
-82 37z"/>
<path d="M9165 2270 c-29 -11 -46 -35 -39 -54 3 -9 9 -16 13 -17 3 0 14 -2 24
-4 21 -4 57 28 57 50 0 20 -31 34 -55 25z"/>
<path d="M6611 2246 c-20 -24 -5 -65 27 -77 23 -9 30 -7 50 16 21 24 21 29 9
49 -18 26 -69 33 -86 12z"/>
<path d="M5690 2242 c0 -14 23 -32 42 -32 11 0 18 7 18 20 0 16 -7 20 -30 20
-16 0 -30 -4 -30 -8z"/>
<path d="M9728 2219 c-22 -13 -23 -55 -2 -63 47 -18 85 14 64 54 -12 22 -35
25 -62 9z"/>
<path d="M6806 2204 c-20 -19 -20 -43 -1 -71 15 -21 25 -23 57 -9 25 11 32 55
12 77 -21 23 -47 24 -68 3z"/>
<path d="M8951 2211 c-7 -5 -13 -21 -13 -36 0 -32 17 -46 51 -43 56 6 59 88 4
88 -15 0 -34 -4 -42 -9z"/>
<path d="M4853 2203 c-19 -7 3 -43 26 -43 23 0 37 30 19 42 -14 9 -27 9 -45 1z"/>
<path d="M5277 2197 c-7 -20 3 -37 32 -52 21 -10 31 -11 40 -2 12 12 15 56 4
58 -52 8 -72 7 -76 -4z"/>
<path d="M8753 2200 c-48 -19 -19 -90 37 -90 40 0 56 53 24 84 -17 18 -29 19
-61 6z"/>
<path d="M9497 2196 c-30 -31 5 -76 47 -60 26 10 18 68 -10 72 -12 2 -28 -4
-37 -12z"/>
<path d="M11051 2201 c-10 -6 -10 -10 -1 -16 13 -8 24 -1 19 14 -3 6 -10 7
-18 2z"/>
<path d="M5926 2174 c-3 -8 -1 -24 4 -35 21 -38 79 -12 65 31 -8 25 -60 28
-69 4z"/>
<path d="M8563 2180 c-44 -18 -18 -95 30 -88 30 4 43 32 31 65 -10 31 -27 37
-61 23z"/>
<path d="M10580 2170 c0 -16 5 -21 23 -18 12 2 22 10 22 18 0 8 -10 16 -22 18
-18 3 -23 -2 -23 -18z"/>
<path d="M7026 2167 c-24 -17 -18 -65 11 -84 19 -13 23 -12 42 8 48 52 3 117
-53 76z"/>
<path d="M4662 2148 c7 -19 38 -22 38 -4 0 10 -9 16 -21 16 -12 0 -19 -5 -17
-12z"/>
<path d="M7396 2145 c-19 -19 -21 -46 -4 -63 18 -18 45 -14 62 9 30 44 -20 91
-58 54z"/>
<path d="M6135 2143 c-38 -10 -45 -37 -14 -54 18 -9 25 -8 41 8 17 18 17 55
-1 52 -3 -1 -15 -4 -26 -6z"/>
<path d="M5511 2126 c-24 -29 25 -80 55 -55 22 18 17 48 -12 59 -32 12 -29 13
-43 -4z"/>
<path d="M9966 2125 c-20 -15 -18 -48 4 -53 24 -4 52 21 45 40 -9 23 -28 28
-49 13z"/>
<path d="M6316 2114 c-9 -8 -16 -24 -16 -34 0 -19 25 -50 39 -50 13 0 41 36
41 52 0 47 -33 63 -64 32z"/>
<path d="M8203 2119 c-32 -12 -30 -47 3 -59 31 -12 54 2 54 31 0 24 -29 39
-57 28z"/>
<path d="M7580 2105 c-34 -41 -15 -88 33 -83 37 4 60 38 48 72 -10 27 -62 34
-81 11z"/>
<path d="M7848 2109 c-21 -12 -24 -49 -6 -67 25 -25 77 -10 82 24 8 45 -33 68
-76 43z"/>
<path d="M9241 2101 c-13 -23 -6 -47 17 -56 20 -8 44 22 40 50 -4 28 -44 32
-57 6z"/>
<path d="M4960 2095 c0 -8 9 -15 20 -15 13 0 18 5 14 15 -4 8 -12 15 -20 15
-8 0 -14 -7 -14 -15z"/>
<path d="M7197 2092 c-33 -37 -9 -90 36 -78 34 8 48 63 21 83 -24 18 -38 16
-57 -5z"/>
<path d="M8386 2094 c-21 -21 -20 -30 6 -48 25 -18 57 -21 59 -6 1 6 2 16 3
23 7 41 -38 62 -68 31z"/>
<path d="M7977 2069 c-18 -25 -11 -55 16 -74 27 -19 32 -19 51 1 21 21 20 57
-2 77 -25 23 -48 21 -65 -4z"/>
<path d="M9054 2076 c-21 -16 -13 -40 19 -60 20 -13 52 3 53 25 2 44 -35 62
-72 35z"/>
<path d="M5740 2060 c-11 -7 -11 -11 -1 -24 17 -20 27 -20 34 -2 8 19 -15 37
-33 26z"/>
<path d="M6513 2054 c-3 -8 2 -23 11 -32 15 -15 17 -15 32 0 21 21 11 48 -16
48 -11 0 -23 -7 -27 -16z"/>
<path d="M8908 2039 c-27 -15 -23 -54 7 -67 32 -15 30 -15 50 4 24 24 3 74
-30 74 -5 -1 -18 -5 -27 -11z"/>
<path d="M9640 2000 c-8 -15 -6 -21 8 -29 25 -13 58 9 49 33 -9 22 -44 20 -57
-4z"/>
<path d="M10200 2005 c0 -8 7 -15 15 -15 8 0 15 7 15 15 0 8 -7 15 -15 15 -8
0 -15 -7 -15 -15z"/>
<path d="M10412 2008 c-20 -20 -14 -38 14 -38 20 0 25 4 22 22 -4 26 -19 33
-36 16z"/>
<path d="M5945 1963 c-8 -22 38 -65 60 -57 20 8 29 42 15 59 -17 21 -66 19
-75 -2z"/>
<path d="M8276 1957 c-25 -18 -13 -55 20 -63 42 -11 72 34 42 64 -16 16 -40
15 -62 -1z"/>
<path d="M6691 1951 c-22 -14 13 -63 41 -59 26 4 43 30 35 52 -7 17 -53 22
-76 7z"/>
<path d="M7290 1940 c-25 -25 -13 -56 26 -66 43 -11 64 55 25 76 -26 13 -28
13 -51 -10z"/>
<path d="M8716 1944 c-23 -22 -20 -40 10 -63 20 -16 31 -18 45 -10 33 17 20
55 -28 83 -6 3 -19 -1 -27 -10z"/>
<path d="M6923 1943 c-18 -6 -16 -38 2 -53 12 -10 18 -10 30 0 8 7 15 18 15
26 0 16 -30 33 -47 27z"/>
<path d="M8067 1923 c-14 -13 -6 -53 11 -62 22 -11 42 3 42 29 0 29 -36 51
-53 33z"/>
<path d="M5606 1913 c-12 -12 -6 -33 9 -33 8 0 15 6 15 14 0 17 -14 28 -24 19z"/>
<path d="M7544 1905 c-8 -21 3 -45 20 -45 18 0 40 36 31 50 -9 15 -45 12 -51
-5z"/>
<path d="M6176 1902 c-9 -14 21 -35 40 -28 8 3 14 12 12 19 -6 15 -44 22 -52
9z"/>
<path d="M7913 1899 c-27 -10 -30 -41 -7 -63 21 -21 41 -20 54 3 23 44 -3 77
-47 60z"/>
<path d="M8488 1899 c-37 -21 -15 -49 37 -49 27 0 36 17 23 43 -10 19 -34 22
-60 6z"/>
<path d="M6427 1863 c-22 -22 10 -62 50 -63 30 0 38 17 22 46 -12 23 -56 34
-72 17z"/>
<path d="M7689 1854 c-10 -13 -10 -17 1 -24 19 -12 51 7 44 25 -8 19 -28 19
-45 -1z"/>
<path d="M5320 1850 c0 -13 18 -22 24 -11 3 5 -1 11 -9 15 -8 3 -15 1 -15 -4z"/>
<path d="M5950 1805 c-6 -8 -9 -19 -5 -25 9 -14 45 6 45 25 0 19 -24 19 -40 0z"/>
<path d="M9270 1806 c0 -20 26 -27 40 -12 8 10 7 15 -6 20 -24 9 -34 7 -34 -8z"/>
<path d="M8980 1775 c-16 -19 -5 -35 25 -35 24 0 35 16 28 38 -6 17 -38 15
-53 -3z"/>
<path d="M6605 1770 c-11 -17 5 -30 37 -30 23 0 29 4 24 16 -3 9 -6 18 -6 20
0 9 -49 3 -55 -6z"/>
<path d="M7105 1760 c-10 -17 20 -44 40 -36 9 3 15 14 13 23 -4 21 -43 30 -53
13z"/>
<path d="M7556 1751 c-16 -17 -16 -20 -1 -35 21 -20 41 -21 49 0 10 25 7 33
-13 43 -14 8 -22 6 -35 -8z"/>
<path d="M6270 1750 c-20 -12 -2 -44 27 -48 24 -4 38 25 22 44 -13 16 -28 17
-49 4z"/>
<path d="M7995 1744 c-15 -15 -15 -18 1 -35 32 -35 83 -13 69 31 -8 25 -47 27
-70 4z"/>
<path d="M7340 1735 c-18 -22 -3 -55 26 -55 18 0 24 5 24 23 0 22 -16 47 -31
47 -4 0 -12 -7 -19 -15z"/>
<path d="M6925 1730 c-8 -14 3 -30 21 -30 8 0 14 9 14 20 0 21 -24 28 -35 10z"/>
<path d="M8434 1725 c-8 -21 2 -45 19 -45 20 0 40 27 33 45 -7 19 -45 20 -52
0z"/>
<path d="M9207 1686 c-6 -16 2 -28 14 -20 12 7 11 34 0 34 -5 0 -11 -6 -14
-14z"/>
<path d="M6015 1640 c-4 -6 -3 -16 3 -22 6 -6 12 -6 17 2 4 6 3 16 -3 22 -6 6
-12 6 -17 -2z"/>
<path d="M6673 1604 c-7 -20 11 -38 31 -31 9 4 12 13 9 26 -6 25 -31 28 -40 5z"/>
<path d="M6440 1575 c0 -8 4 -15 9 -15 5 0 11 7 15 15 3 9 0 15 -9 15 -8 0
-15 -7 -15 -15z"/>
<path d="M6867 1583 c-12 -11 -8 -22 14 -33 24 -13 51 3 42 26 -5 14 -44 19
-56 7z"/>
<path d="M7740 1580 c-13 -9 -12 -12 4 -25 22 -17 48 -3 39 21 -6 16 -22 18
-43 4z"/>
<path d="M7298 1553 c-23 -6 -30 -29 -13 -43 20 -16 45 -5 45 19 0 23 -8 29
-32 24z"/>
<path d="M8830 1516 c0 -15 24 -28 34 -19 13 14 5 33 -14 33 -11 0 -20 -6 -20
-14z"/>
<path d="M8380 1470 c0 -5 7 -10 15 -10 8 0 15 5 15 10 0 6 -7 10 -15 10 -8 0
-15 -4 -15 -10z"/>
</g>
</svg>
